<svg xmlns="http://www.w3.org/2000/svg" width="32" height="32" viewBox="0 0 32 32" fill="none" class="cur-fill-current cur-mr-3 cur-flex-shrink-0">
  <!-- Triangle base at bottom (pointing up, narrower and smaller) -->
  <path d="M16 23 L12 30 L20 30 Z" fill="currentColor" opacity="0.0"/>
  <path d="M16 23 L12 30 L20 30 Z" stroke="currentColor" stroke-width="1.5" fill="none"/>
  
  <!-- Horizontal bar across (lower position so icons don't overlap) -->
  <line x1="4" y1="20" x2="28" y2="20" stroke="currentColor" stroke-width="2.5" stroke-linecap="round"/>
  
  <!-- Left side - Cactus (dry) sitting on bar -->
  <g transform="translate(0, 4) scale(0.45)">
    <path fill="currentColor" d="M13 3a3 3 0 1 1 6 0v13.108c0 .835.926 1.253 1.457.608 1.358-1.646 2.477-3.884 2.477-5.716V8a2 2 0 0 1 4 0v3c0 4.18-3.067 8.951-6.634 11.131A2.72 2.72 0 0 0 19 24.45V31a1 1 0 0 1-1 1h-4a1 1 0 0 1-1-1v-3.934a3 3 0 0 0-1.48-2.586l-.604-.356A12 12 0 0 1 5 13.78V9a2 2 0 1 1 4 0v4.78a8 8 0 0 0 2.55 5.857c.565.526 1.397.069 1.4-.703z"/>
  </g>
  
  <!-- Right side - Oil droplet (oily) sitting on bar -->
  <g transform="translate(17, 4) scale(0.45)">
    <path fill="currentColor" fill-rule="evenodd" d="M17.44 13.213C23.575 6.91 21.003 0 15.604 0c-1.178 0-2.356.44-3.255 1.318A4.44 4.44 0 0 0 11 4.5c0 2.035 1.395 3.37 2.796 4.71 1.143 1.093 2.289 2.19 2.685 3.673.111.419.657.641.96.33m-2.88 5.574C8.425 25.09 10.998 32 16.397 32c1.178 0 2.356-.44 3.255-1.318A4.44 4.44 0 0 0 21 27.5c0-2.035-1.395-3.37-2.796-4.71-1.143-1.093-2.289-2.19-2.685-3.673-.111-.419-.657-.641-.96-.33M32 15.603c0 5.4-6.91 7.972-13.213 1.838-.311-.303-.089-.848.33-.96 1.483-.396 2.58-1.542 3.673-2.685C24.13 12.396 25.465 11 27.5 11c1.152 0 2.303.45 3.182 1.348A4.64 4.64 0 0 1 32 15.603M13.213 14.56C6.91 8.425 0 10.998 0 16.397c0 1.178.44 2.356 1.318 3.255A4.44 4.44 0 0 0 4.5 21c2.035 0 3.37-1.395 4.71-2.796 1.093-1.143 2.19-2.289 3.673-2.685.419-.111.641-.657.33-.96" clip-rule="evenodd"/>
  </g>
</svg>
