<svg width="298" height="471" viewBox="0 0 298 471" fill="none" xmlns="http://www.w3.org/2000/svg">
<title>Outline of male face and neck</title>
<path d="M247.259 441.842C251.615 448.339 257.964 455.723 282.402 467.757L287.572 470.5H11.0723L14.7666 467.683C39.2783 455.649 45.554 448.266 49.91 441.769C56.3332 432.171 59.5818 412.163 59.5818 382.261V326.15C50.1315 312.934 40.2383 297.504 37.5065 288.422C35.9561 283.254 31.8951 269.669 28.425 250.917C27.9082 248.111 27.4652 245.379 27.0222 242.574C24.7335 242.278 22.5188 241.171 20.3039 239.177C9.00777 228.841 -0.0733836 194.658 0.000447012 162.984C0.0742776 147.997 2.28921 140.171 6.94054 138.251C11.6657 136.331 17.2767 141.204 22.0018 145.929C22.2233 109.605 24.586 78.5221 36.4728 57.0374C44.2988 42.862 58.8432 28.6865 76.341 18.2025C94.7987 7.12795 115.176 0.704687 133.855 0.261704C137.768 -0.181277 150.172 0.0402142 158.441 0.187875L158.441 0.187878C160.434 0.261704 162.058 0.261704 163.166 0.261704H163.166C179.999 0.704687 200.155 7.05412 218.613 17.5381C237.809 28.5388 252.796 42.5666 260.696 57.0374C272.509 78.6698 274.872 109.679 275.167 146.003C279.966 141.278 285.503 136.331 290.302 138.325C294.954 140.244 297.242 148.071 297.242 163.058C297.39 194.731 288.235 228.915 276.939 239.251C274.724 241.245 272.509 242.426 270.22 242.647C269.777 245.453 269.334 248.259 268.817 250.99C265.347 269.743 261.287 283.402 259.736 288.496C257.005 297.651 247.038 313.23 237.587 326.445V382.335C237.587 412.162 240.836 432.244 247.259 441.842Z" fill="black" class="body-stroke"></path>
<path d="M275.979 149.842C279.892 145.855 285.872 139.801 289.195 141.203C291.04 141.942 294.067 145.781 294.141 162.984C294.215 193.328 285.429 227.068 274.871 236.74C273.543 237.995 272.214 238.808 270.885 239.103C273.543 221.384 274.946 203 275.167 184.468V179.3C275.315 169.407 275.388 159.809 275.388 150.506C275.61 150.285 275.832 150.063 276.053 149.842H275.979Z" fill="white" class="body-fill"></path>
<path d="M22.6646 236.74C12.1068 227.068 3.24722 193.328 3.39489 162.984C3.39489 145.781 6.49564 141.942 8.34141 141.203C11.6638 139.801 17.6439 145.855 21.5569 149.842C21.7784 150.063 21.9262 150.285 22.1477 150.432C22.1477 159.292 22.2217 168.373 22.2955 177.75C22.2955 179.965 22.2955 182.179 22.2955 184.468C22.4432 203 23.9194 221.384 26.5773 239.103C25.2484 238.734 23.9196 237.995 22.5907 236.74H22.6646Z" fill="white" class="body-fill"></path>
<path d="M40.7569 287.388C31.0851 255.05 25.9904 220.424 25.6212 184.468C25.6212 182.253 25.6212 179.965 25.6212 177.75C25.1044 128.136 24.6616 85.3139 39.5753 58.5134C54.12 32.2297 93.5456 4.39558 134.3 3.43578H134.448C137.992 2.9928 150.912 3.21429 158.664 3.36195C160.658 3.36195 162.282 3.36195 163.389 3.43578C198.385 4.39558 242.684 30.1625 258.114 58.5134C272.954 85.683 272.511 129.022 271.994 179.226V184.394C271.625 220.35 266.53 254.977 256.859 287.314C254.348 295.731 244.455 311.162 234.857 324.673C234.783 324.82 234.636 324.968 234.562 325.116C228.951 333.015 223.413 340.177 219.5 344.976C188.713 379.972 170.477 384.549 160.658 387.059C159.403 387.355 158.295 387.65 157.261 387.945C150.986 389.57 142.348 388.462 140.428 387.945C139.395 387.65 138.287 387.355 137.032 387.059C127.212 384.623 108.976 380.046 78.1886 344.976C74.2756 340.177 68.6645 332.942 62.9795 324.968C62.9795 324.894 62.8321 324.82 62.8321 324.673C53.2342 311.162 43.3406 295.731 40.8303 287.314L40.7569 287.388Z" fill="white" class="body-fill"></path>
<path d="M52.5664 443.54C47.9151 450.406 41.3442 458.159 16.168 470.562L280.703 470.636C255.453 458.232 248.882 450.48 244.304 443.614C239.948 437.043 236.921 426.042 235.371 410.907C234.116 398.874 234.116 387.21 234.116 382.262V382.261V330.801C229.022 337.815 224.37 343.795 221.565 347.265C190.229 382.867 171.352 387.689 161.21 390.28L161.097 390.308C159.842 390.604 158.809 390.899 157.849 391.194C155.117 391.933 152.016 392.154 149.137 392.154C144.707 392.154 140.72 391.563 139.243 391.194H139.17C138.284 390.899 137.176 390.604 135.921 390.308L135.809 390.28C125.667 387.689 106.79 382.867 75.4537 347.191C72.5743 343.647 67.9232 337.667 62.7551 330.579V382.187V382.188C62.7551 387.136 62.7551 398.8 61.5001 410.833C59.9496 425.968 56.9224 436.969 52.5664 443.54Z" fill="white" class="body-fill"></path>
</svg>