<svg width="147" height="554" viewBox="0 0 147 554" fill="none" xmlns="http://www.w3.org/2000/svg">
<title>Male figure back</title>
<path d="M146.585 125.454C147.282 120.933 146.066 115.184 144.939 111.157C143.66 106.611 142.014 102.572 141.203 100.964C139.848 97.7724 138.126 95.6197 135.948 94.3913C134.099 93.353 132.263 93.201 130.933 93.0997H130.731C127.844 92.8464 114.041 88.8829 110.077 87.186C90.5507 79.4108 89.7402 76.9162 88.8918 74.2823C88.6512 73.5605 88.5246 65.5194 88.4232 59.6563C88.4232 59.6437 88.4232 59.631 88.4232 59.6057C89.1197 58.7952 89.6642 57.9341 90.1961 57.111C90.3227 56.9084 90.4493 56.7058 90.576 56.5159C91.6523 54.857 92.6781 51.8052 93.5138 47.677C93.6278 47.1198 93.7418 46.5373 93.8431 45.9421C94.0457 46.0434 94.223 46.0814 94.4003 46.0814C94.5269 46.0814 94.6535 46.0561 94.7548 46.0308C96.8189 45.3596 98.4145 38.6228 99.1489 33.0637C99.5542 29.9992 98.6297 28.4923 97.6293 28.0998C96.9582 27.8338 96.2111 28.0365 95.5906 28.6063C95.7932 21.9455 95.4386 15.0947 93.9824 11.5997C92.0196 6.90166 87.9294 4.14109 84.8522 2.6595C81.3572 0.987969 77.191 0.000244141 73.696 0.000244141C69.5678 0.000244141 65.275 1.12726 61.6027 3.1407C58.095 5.0655 55.4231 7.6108 54.0935 10.3207C51.7001 15.196 51.7001 21.7809 51.6875 27.6059C51.6875 27.9478 51.6875 28.3024 51.6875 28.6443C51.0543 28.0491 50.3072 27.8465 49.6234 28.1124C48.623 28.505 47.6986 30.0119 48.1038 33.0764C48.8382 38.6482 50.4338 45.385 52.4979 46.0434C52.5992 46.0814 52.7132 46.0941 52.8525 46.0941C53.0297 46.0941 53.2197 46.0561 53.4223 45.9421C54.0808 49.4752 55.1445 53.9073 56.5501 56.1233C56.9047 56.6805 58.133 58.5673 59.1714 59.7703C59.0701 65.6207 58.9308 73.5731 58.7028 74.2949C57.8417 76.9289 57.044 79.4235 37.5047 87.1987C33.5412 88.8955 19.5104 92.8591 16.6232 93.0997H16.4206C15.0783 93.2263 13.2421 93.3783 11.406 94.4167C9.22792 95.6323 7.51839 97.7851 6.15077 100.989C5.353 102.597 3.69412 106.637 2.41515 111.183C1.28813 115.21 0.0851262 120.959 0.768936 125.479C1.92128 133.027 3.01031 140.169 3.12428 142.423C3.20026 144.031 3.20026 158.036 3.1876 165.558C3.1876 168.331 3.1876 170.332 3.1876 170.826C3.20026 172.878 3.37754 184.629 3.5295 187.491C3.59282 188.58 3.68146 189.656 3.75744 190.707C3.89673 192.48 4.02337 194.152 4.04869 195.823C4.07402 197.241 3.21292 204.13 2.73172 205.928C0.806926 213.134 1.16149 220.124 1.51606 226.873C1.56671 227.76 1.6047 228.684 1.64269 229.57C1.79465 233.04 2.28851 239.182 2.79504 245.703C3.37754 253.137 3.98538 260.81 4.04869 264.027C4.08668 265.964 0.933557 288.226 0.730947 289.315C0.50301 290.455 1.31345 301.826 1.85797 303.473C1.94661 303.751 4.26397 310.184 5.79621 312.299C7.16383 314.186 13.0395 320.72 14.5591 321.809L14.7491 321.948L14.9137 321.771C15.8507 320.783 16.256 319.757 16.2686 318.719C17.0791 317.275 16.9144 315.477 15.8001 313.514C14.8883 311.906 13.5334 310.539 12.6343 309.842C12.381 309.361 11.8998 308.335 11.406 307.272C10.6462 305.638 9.77243 303.776 9.34189 303.067C9.17727 302.194 9.07596 300.915 8.96199 299.572C8.78471 297.508 8.59476 295.166 8.13889 293.735C8.55677 291.709 9.25325 290.303 9.62048 289.644C10.2156 288.593 10.6842 288.251 10.8361 288.213C12.1151 291.151 11.9505 293.19 11.8112 294.988C11.7732 295.431 11.7479 295.837 11.7352 296.242C11.7352 296.584 11.6719 297.103 11.6086 297.774C11.33 300.636 10.8615 305.435 12.4823 307.36C12.9129 307.867 13.4574 308.145 14.1159 308.196C14.6984 308.234 15.2303 308.031 15.6735 307.601C17.6616 305.638 17.6109 299.205 17.3956 295.558C17.3956 295.482 17.3956 295.431 17.3956 295.393C17.3703 294.824 17.5349 293.101 18.4973 288.137C19.3838 283.553 19.2191 279.324 18.0161 275.918C17.6489 274.879 18.5607 269.839 18.4847 267.826C18.3074 265.129 24.8796 240.727 25.5381 237.953C25.7407 237.08 26.4625 235.902 26.8044 234.547C28.2226 228.849 29.0584 220.225 29.3497 216.185C29.7169 211.095 27.3995 195.291 27.3109 194.62C27.2223 194 28.8811 189.783 29.1977 186.073C29.4256 183.477 29.6409 181.02 29.7042 179.754C29.8182 177.373 30.3247 162.165 30.5273 153.807C31.1732 159.531 30.8312 165.736 31.4517 169.775C31.6797 171.244 31.857 172.396 31.9583 173.131C32.3888 176.297 32.4268 207.84 32.3128 213.146C32.2622 215.78 32.0216 217.857 32.0722 218.769C32.1609 220.352 31.8063 225.923 30.7426 230.849C29.8688 234.902 28.3999 238.726 28.1847 239.954C27.8681 241.803 27.3869 246.438 26.9563 250.541C26.7411 252.643 26.5384 254.631 26.3612 256.138C25.9813 259.417 25.6773 271.055 25.3608 275.284C25.2088 277.399 23.5626 283.427 24.3097 291.101C25.2595 300.839 26.6904 309.994 28.5645 318.288C32.8067 337.055 35.2127 345.983 36.2637 349.63C36.631 350.909 39.8727 362.293 40.3159 370.207C40.7085 377.248 40.164 391.811 39.7714 397.332C39.7081 398.282 39.6195 399.32 39.5435 400.434C39.1509 405.462 38.6697 411.704 38.9103 415.592C39.2143 420.632 40.2906 430.332 42.2914 441.07C43.0512 445.148 44.3555 452.037 45.7358 459.318C48.1164 471.842 50.5731 484.796 50.801 486.392C51.105 488.532 55.3598 501.879 54.1314 509.591C53.9035 510.49 53.6629 511.262 53.4223 512.009C52.6878 514.289 52.1053 516.087 53.1311 519.189C53.5616 520.975 52.8525 526.471 51.8014 528.231V528.256C49.6234 532.941 45.1659 537.247 42.5067 539.818C41.6709 540.615 41.0124 541.261 40.6452 541.692C40.2653 541.793 39.7841 541.894 39.2396 542.021C36.479 542.629 32.2875 543.553 32.2875 546.174C32.2875 546.782 32.6547 547.377 33.3512 547.909C34.8961 549.087 37.8086 549.758 39.5435 549.34C43.2411 551.265 46.6855 551.037 48.9775 550.885C49.2941 550.86 49.5854 550.847 49.8513 550.834C51.9281 550.746 52.08 550.847 52.5612 551.176C52.8525 551.379 53.2577 551.645 54.1061 551.987C56.0056 552.747 59.3993 553.038 61.4127 553.038C61.9319 553.038 62.3625 553.025 62.6537 552.987H62.6917C65.8449 552.987 68.1749 552.253 69.6311 550.809C71.3786 549.062 71.3913 546.732 71.3913 545.719C71.6192 543.946 70.9861 537.981 70.3656 532.207C69.973 528.573 69.6058 525.141 69.4412 522.748C69.6944 521.367 70.4796 515.796 70.2263 513.681C69.5425 508.198 69.3399 502.639 69.2892 488.886C69.2512 476.071 69.6944 463.547 69.8464 460.166C69.8971 459.027 70.2516 453.075 70.6569 446.174C71.2394 436.119 71.9738 423.595 72.0245 422C72.1131 419.353 71.7965 404.411 71.6572 401.587C71.4926 398.32 71.0747 388.67 71.1634 386.543C71.2014 385.631 71.4926 383.542 71.8345 381.136C72.3031 377.767 72.8476 373.956 72.9615 371.474C73.0882 368.764 72.4424 360.305 72.0498 355.265C71.9358 353.821 71.8472 352.669 71.7965 351.972C71.5939 348.933 70.8721 322.48 70.9228 319.795C70.9481 318.478 71.2267 310.311 71.5053 302.409C71.7585 295.216 71.9865 288.416 72.0118 287.289C72.0118 286.795 72.0118 286.327 72.0245 285.883C72.0498 284.668 72.0625 283.617 71.9738 282.806C72.5437 282.338 73.0882 281.819 73.582 281.274C74.2152 281.692 74.861 282.085 75.5068 282.452C75.4182 283.288 75.4309 284.554 75.4562 285.883C75.4562 286.339 75.4688 286.821 75.4688 287.302C75.4942 288.429 75.7221 295.229 75.9754 302.422C76.254 310.323 76.5326 318.491 76.5579 319.808C76.6085 322.493 75.8867 348.946 75.6841 351.985C75.6335 352.682 75.5448 353.821 75.4309 355.278C75.0383 360.33 74.3798 368.776 74.5191 371.486C74.6331 373.968 75.1776 377.78 75.6461 381.148C75.988 383.554 76.2793 385.631 76.3173 386.555C76.4059 388.683 75.988 398.332 75.8234 401.599C75.6841 404.423 75.3802 419.366 75.4562 422.012C75.5068 423.621 76.2413 436.132 76.8238 446.199C77.229 453.088 77.5709 459.039 77.6342 460.179C77.7862 463.547 78.2294 476.071 78.1914 488.899C78.1534 502.651 77.9382 508.21 77.2543 513.693C76.9884 515.808 77.7862 521.38 78.0395 522.76C77.8748 525.166 77.5076 528.598 77.1151 532.22C76.4946 537.994 75.8487 543.958 76.0893 545.731C76.0893 546.744 76.0893 549.074 77.8495 550.822C79.3058 552.265 81.6358 553 84.7889 553H84.8269C85.1182 553.038 85.5487 553.051 86.0679 553.051C88.0813 553.051 91.4877 552.772 93.3745 552C94.2356 551.658 94.6282 551.392 94.9194 551.189C95.4133 550.86 95.5653 550.759 97.6293 550.847C97.8953 550.847 98.1865 550.872 98.5031 550.898C100.795 551.05 104.24 551.278 107.937 549.353C108.292 549.442 108.684 549.48 109.115 549.48C110.799 549.48 112.901 548.859 114.129 547.922C114.826 547.39 115.193 546.795 115.193 546.187C115.193 543.566 111.014 542.641 108.241 542.034C107.697 541.907 107.215 541.806 106.835 541.704C106.481 541.274 105.81 540.628 104.974 539.83C102.315 537.26 97.8573 532.954 95.6919 528.269V528.243C94.6155 526.496 93.919 520.987 94.3369 519.202C95.35 516.099 94.7801 514.301 94.0457 512.022C93.8051 511.275 93.5645 510.515 93.3365 509.603C93.02 499.675 96.2744 485.619 96.5783 483.479C96.8063 481.884 99.3009 472.082 101.086 459.331C102.125 451.986 104.429 445.161 105.189 441.083C107.19 430.345 108.254 420.645 108.57 415.605C108.811 411.717 108.33 405.462 107.937 400.447C107.849 399.345 107.773 398.307 107.709 397.344C107.317 391.836 109.14 377.261 109.533 370.22C109.976 362.318 111.926 350.921 112.293 349.642C112.926 347.452 114.269 340.145 116.27 331.407C117.84 324.544 123.741 299.762 124.69 290.024C125.438 282.35 127.16 276.576 127.223 274.449C127.337 270.131 126.413 259.304 125.64 255.91C125.324 254.53 124.501 252.491 123.969 250.338C122.981 246.336 121.221 243.057 120.904 241.208C120.689 239.967 119.144 234.889 118.27 230.837C117.207 225.923 116.004 220.339 115.763 218.781C115.624 217.844 115.332 215.768 114.978 213.146C114.256 207.878 116.409 176.297 116.852 173.131C116.953 172.409 117.131 171.244 117.359 169.775C117.979 165.761 116.333 159.619 116.979 153.921C117.181 162.291 117.675 177.373 117.789 179.741C117.852 181.007 118.068 183.464 118.296 186.06C118.612 189.77 118.979 193.987 118.891 194.607C118.789 195.279 118.422 211.095 118.789 216.173C119.081 220.212 122.512 228.836 123.931 234.534C124.273 235.889 124.551 237.054 124.766 237.928C125.425 240.714 131.123 265.103 130.946 267.8C130.883 269.371 130.009 273.739 129.249 275.892C128.046 279.299 127.869 283.528 128.768 288.112C129.73 293.063 129.895 294.786 129.87 295.368C129.87 295.406 129.87 295.457 129.87 295.533C129.654 299.192 129.604 305.613 131.592 307.575C132.035 308.019 132.554 308.221 133.149 308.171C133.808 308.12 134.352 307.841 134.783 307.335C136.417 305.41 135.935 300.611 135.657 297.749C135.593 297.078 135.543 296.546 135.53 296.217C135.53 295.811 135.492 295.393 135.454 294.963C135.315 293.165 135.15 291.126 136.429 288.188C136.581 288.226 137.05 288.568 137.645 289.619C138.025 290.278 138.709 291.671 139.126 293.709C138.671 295.14 138.481 297.483 138.303 299.547C138.189 300.889 138.088 302.168 137.923 303.042C137.48 303.751 136.619 305.6 135.859 307.246C135.353 308.323 134.884 309.336 134.631 309.817C133.732 310.513 132.377 311.881 131.465 313.489C130.351 315.452 130.186 317.25 130.997 318.694C130.997 319.745 131.402 320.77 132.352 321.745L132.516 321.923L132.706 321.783C134.226 320.694 140.114 314.16 141.469 312.273C143.001 310.159 145.319 303.713 145.407 303.447C145.952 301.814 146.75 290.442 146.534 289.29C146.319 288.201 143.179 265.939 143.217 264.002C143.28 260.798 143.888 253.111 144.47 245.678C144.99 239.169 145.471 233.015 145.623 229.545C145.661 228.646 145.711 227.734 145.762 226.848C146.104 220.086 146.471 213.108 144.546 205.903C144.065 204.118 143.217 197.216 143.229 195.798C143.255 194.126 143.394 192.455 143.521 190.682C143.597 189.631 143.685 188.555 143.749 187.465C143.913 184.616 144.078 172.852 144.09 170.801C144.09 170.307 144.09 168.306 144.09 165.533C144.09 158.011 144.09 144.018 144.154 142.41C144.268 140.156 145.357 133.027 146.509 125.467L146.585 125.454Z" fill="black" class="body-stroke"></path>
<path d="M95.5526 29.48C96.0971 28.7075 96.8062 28.3656 97.4267 28.6062C98.1992 28.9101 98.959 30.2271 98.6044 32.9877C97.7053 39.7751 96.0211 45.043 94.5902 45.4988C94.5015 45.5242 94.2736 45.6001 93.957 45.3469C94.5269 42.0671 94.9827 38.3695 95.274 34.5326C95.4006 32.9117 95.5019 31.2148 95.5652 29.48H95.5526Z" fill="white" class="body-fill"></path>
<path d="M52.6753 45.4989C51.2444 45.043 49.5475 39.7751 48.6611 32.9877C48.2939 30.2398 49.0663 28.9101 49.8388 28.6062C50.4466 28.3656 51.1557 28.6949 51.7003 29.4673C51.7003 32.8737 52.2068 38.3948 52.9792 43.2702C53.0805 43.8906 53.1945 44.5871 53.3211 45.3342C52.9919 45.6002 52.764 45.5242 52.6753 45.4989Z" fill="white" class="body-fill"></path>
<path d="M20.46 136.319C21.625 141.169 28.0579 145.664 30.0714 149.337C30.0334 154.427 29.3116 176.765 29.1723 179.69C29.109 180.944 28.8937 183.4 28.6658 185.996C28.2479 190.821 26.6903 194.038 26.7789 194.671C26.8803 195.342 29.1849 211.095 28.8177 216.122C28.5265 220.111 27.6907 228.709 26.2851 234.382C25.9432 235.737 25.2214 236.915 25.0188 237.789C24.3603 240.575 17.7881 265.078 17.9654 267.826C18.0414 269.472 16.7371 273.841 17.5348 276.069C18.7125 279.387 18.8771 283.515 18.0034 287.998C17.2183 292.025 16.851 294.507 16.889 295.381C16.889 295.419 16.889 295.469 16.889 295.545C17.2309 301.611 16.6611 305.84 15.3315 307.17C15.0022 307.499 14.635 307.639 14.2044 307.613C13.6979 307.575 13.2927 307.373 12.9508 306.98C11.4692 305.233 11.9504 300.408 12.2037 297.812C12.267 297.128 12.3176 296.596 12.3303 296.242C12.3303 295.849 12.3683 295.444 12.4063 295.013C12.5456 293.215 12.7229 290.987 11.3426 287.884L11.3172 287.833L11.2793 287.795C11.1273 287.644 10.9247 287.606 10.6967 287.669C9.74701 287.96 8.25276 290.493 7.60694 293.671V293.747V293.823C8.06281 295.178 8.25276 297.533 8.41738 299.598C8.53135 300.99 8.64532 302.295 8.80994 303.207V303.257L8.84793 303.308C9.25315 303.941 10.1396 305.828 10.912 307.487C11.4565 308.664 11.9251 309.665 12.191 310.146L12.2163 310.197L12.267 310.235C13.1281 310.893 14.445 312.21 15.3315 313.78C15.914 314.793 16.4458 316.199 16.1419 317.541C15.5974 315.224 13.4953 312.83 11.5452 310.64H11.5325C11.0513 308.791 9.82299 306.664 8.92391 305.093C8.45537 304.283 8.03749 303.574 7.93618 303.232C7.91086 302.193 7.55629 296.761 6.46726 294.798L5.98606 295.064C6.96112 296.837 7.36634 301.978 7.39167 303.282V303.32V303.358C7.50564 303.751 7.89819 304.435 8.44271 305.385C9.34179 306.942 10.5701 309.07 11.0133 310.83V310.893L11.1273 311.007C14.2171 314.502 17.4082 318.111 14.6983 321.201C14.3184 320.884 13.7486 320.352 13.0901 319.681C13.8625 318.542 14.0145 317.111 13.5333 315.604C13.0014 313.945 11.7478 312.299 9.89897 310.83C9.50641 310.235 9.18983 309.361 8.86059 308.436C8.3414 306.993 7.74624 305.347 6.63188 304.004C6.66987 301.826 6.26465 296.546 5.15029 294C6.77117 293.329 7.42966 290.86 8.3414 288.479C8.77195 287.34 9.18983 286.251 9.64571 285.465C9.84832 285.111 10.0763 284.756 10.3295 284.364C11.7858 282.084 13.5839 279.26 12.4063 273.955L11.8618 274.069C12.9888 279.147 11.2539 281.869 9.86098 284.06C9.62038 284.44 9.37978 284.807 9.16451 285.174C8.68331 285.997 8.26542 287.099 7.82221 288.277C6.94846 290.569 6.23932 293.177 4.69442 293.57L4.36518 293.658L4.51713 293.962C5.68214 296.305 6.13802 302.016 6.0747 304.106V304.207L6.13802 304.283C7.22705 305.562 7.82221 307.183 8.32874 308.614C8.68331 309.589 9.01255 310.5 9.45576 311.159L9.48109 311.197L9.51908 311.222C11.3046 312.641 12.5076 314.211 13.0014 315.768C13.4193 317.06 13.3054 318.301 12.6849 319.276C10.3675 316.87 7.15107 313.223 6.23932 311.957C4.75773 309.918 2.4657 303.548 2.37706 303.282C2.14912 302.611 1.83255 299.813 1.55396 296.153C1.30069 292.785 1.17406 289.885 1.2627 289.416C1.49064 288.264 4.6311 266.078 4.59311 264.001C4.5298 260.772 3.92197 253.086 3.33946 245.653C2.8456 239.435 2.33907 232.989 2.18711 229.545C2.14912 228.646 2.09847 227.734 2.06048 226.835C1.71858 220.124 1.36401 213.184 3.26348 206.055C3.74468 204.231 4.61844 197.241 4.59311 195.798C4.56779 194.113 4.42849 192.429 4.2892 190.656C4.21322 189.605 4.12458 188.529 4.06126 187.453C3.89664 184.603 3.73202 172.865 3.71935 170.826C3.71935 170.332 3.71935 168.331 3.71935 165.571C3.71935 157.517 3.71935 144.043 3.65604 142.41C3.55473 140.282 2.65565 134.305 1.30069 125.416C0.00905239 116.957 5.26426 104.003 6.63188 101.242C9.59505 94.2519 13.7106 93.91 16.4458 93.6947H16.6484C19.2697 93.4541 31.1097 90.5543 37.6946 87.7431C46.4575 84.248 52.0039 81.6268 55.1317 79.4867C58.0443 77.4986 58.7027 76.055 59.1966 74.4974C59.4372 73.7503 59.5638 67.634 59.7031 59.7195C59.7538 56.6804 59.8044 54.0591 59.8551 52.7674L59.2979 52.7421C59.2473 53.9325 59.2093 56.2371 59.1586 58.9597C58.2469 57.8074 57.2971 56.3511 56.9932 55.8699C54.1313 51.3872 52.1812 36.0014 52.2065 29.3786C52.2065 28.8088 52.2065 28.2389 52.2065 27.6564C52.2065 21.8947 52.2065 15.3732 54.5492 10.6245C55.8155 8.05387 58.4621 5.53391 61.8179 3.68509C65.4142 1.7223 69.6184 0.620605 73.6453 0.620605C73.6579 0.620605 73.6706 0.620605 73.6832 0.620605C79.5083 0.620605 89.9807 3.67242 93.3998 11.8781C94.1975 13.7776 94.7167 17.0194 94.9193 21.2489C95.1093 25.1871 95.0206 29.7838 94.6534 34.5578C93.881 44.625 92.0701 53.1473 90.0314 56.2751C89.9047 56.4777 89.7781 56.6804 89.6388 56.883C89.2336 57.5288 88.803 58.1873 88.3218 58.8204C88.2712 56.1738 88.2332 53.9325 88.1952 52.7674L87.638 52.7928C87.6887 54.0844 87.7267 56.7057 87.79 59.7448C87.9293 67.672 88.0433 73.7883 88.2965 74.5227C88.803 76.0803 89.4489 77.5239 92.3614 79.512C95.4892 81.6521 101.036 84.2734 109.799 87.7684C116.383 90.5796 128.008 93.4921 130.617 93.7074H130.819C133.542 93.948 137.67 94.2772 140.633 101.255C142.001 104.028 147.256 116.982 145.964 125.441C144.61 134.331 143.71 140.308 143.609 142.435C143.533 144.056 143.533 157.542 143.546 165.596C143.546 168.369 143.546 170.37 143.546 170.851C143.533 172.89 143.356 184.641 143.204 187.478C143.141 188.554 143.065 189.643 142.976 190.682C142.837 192.455 142.71 194.139 142.672 195.823C142.647 197.267 143.521 204.257 144.002 206.08C145.901 213.197 145.547 220.136 145.205 226.86C145.154 227.747 145.116 228.671 145.065 229.57C144.913 233.027 144.407 239.46 143.913 245.678C143.331 253.111 142.723 260.81 142.659 264.027C142.621 266.103 145.762 288.289 145.99 289.442C146.078 289.91 145.964 292.81 145.699 296.178C145.42 299.851 145.103 302.649 144.875 303.308C144.787 303.574 142.495 309.943 141.013 311.982C140.101 313.248 136.885 316.895 134.568 319.301C133.947 318.326 133.833 317.098 134.251 315.794C134.745 314.236 135.948 312.666 137.733 311.248L137.771 311.222L137.797 311.184C138.24 310.526 138.569 309.614 138.924 308.639C139.443 307.208 140.025 305.587 141.115 304.308L141.19 304.232V304.131C141.127 302.041 141.583 296.33 142.748 293.988L142.9 293.684L142.571 293.595C141.026 293.203 140.317 290.607 139.443 288.302C139 287.137 138.582 286.035 138.101 285.2C137.885 284.832 137.657 284.465 137.404 284.085C136.011 281.894 134.264 279.172 135.403 274.094L134.859 273.98C133.681 279.286 135.479 282.11 136.936 284.389C137.176 284.769 137.404 285.124 137.619 285.491C138.075 286.276 138.481 287.365 138.924 288.505C139.836 290.898 140.494 293.367 142.115 294.026C140.988 296.571 140.595 301.852 140.633 304.03C139.519 305.372 138.924 307.005 138.405 308.462C138.075 309.386 137.759 310.247 137.366 310.855C135.517 312.324 134.264 313.983 133.732 315.629C133.251 317.136 133.415 318.567 134.175 319.707C133.517 320.378 132.947 320.922 132.567 321.226C129.857 318.136 133.048 314.527 136.138 311.032L136.239 310.918V310.855C136.695 309.082 137.923 306.955 138.822 305.41C139.367 304.46 139.76 303.776 139.874 303.384V303.346V303.308C139.899 302.004 140.291 296.862 141.279 295.089L140.798 294.824C139.709 296.799 139.354 302.219 139.329 303.257C139.228 303.599 138.81 304.308 138.341 305.119C137.442 306.676 136.201 308.816 135.733 310.64H135.72C133.77 312.856 131.668 315.237 131.123 317.554C130.819 316.212 131.351 314.819 131.934 313.793C132.82 312.235 134.137 310.906 134.998 310.247L135.049 310.209L135.074 310.159C135.327 309.69 135.809 308.677 136.353 307.499C137.126 305.84 137.999 303.954 138.417 303.32L138.443 303.27V303.219C138.62 302.32 138.734 301.003 138.848 299.61C139.025 297.533 139.215 295.191 139.658 293.836L139.684 293.76V293.684C139.025 290.505 137.531 287.973 136.581 287.681C136.353 287.618 136.151 287.656 135.999 287.808L135.961 287.846L135.935 287.897C134.555 291.012 134.732 293.241 134.872 295.026C134.91 295.457 134.935 295.862 134.948 296.254C134.948 296.609 135.011 297.154 135.074 297.825C135.327 300.421 135.809 305.245 134.327 306.993C133.998 307.385 133.58 307.601 133.073 307.626C132.643 307.651 132.276 307.512 131.946 307.183C130.604 305.853 130.034 301.624 130.389 295.558C130.389 295.482 130.389 295.431 130.389 295.393C130.427 294.52 130.06 292.025 129.274 288.011C128.401 283.528 128.565 279.4 129.743 276.082C130.528 273.853 131.402 269.472 131.465 267.838C131.642 265.09 125.931 240.6 125.273 237.801C125.07 236.928 124.779 235.75 124.437 234.395C123.032 228.709 119.6 220.124 119.309 216.135C118.941 211.107 119.309 195.354 119.41 194.683C119.499 194.038 119.233 190.834 118.815 186.009C118.587 183.413 118.371 180.969 118.308 179.703C118.156 176.778 117.447 154.529 117.409 149.375C122.791 144.639 121.639 139.282 122.93 136.319C123.437 135.141 127.831 126.505 127.831 126.505C127.831 129.62 122.221 135.508 122.17 136.192C121.791 141.751 119.448 146.411 116.865 149.197L116.839 149.248V149.311C116.295 155.997 117.561 164.558 116.776 169.674C116.548 171.143 116.371 172.308 116.269 173.029C115.839 176.182 113.673 207.942 114.395 213.197C114.762 215.818 115.041 217.895 115.18 218.832C115.421 220.415 116.573 225.759 117.688 230.925C118.561 234.965 119.511 238.789 119.726 240.017C120.157 242.537 122.056 246.463 123.006 249.603C123.652 251.756 124.994 256.188 125.159 257.695C125.552 261.14 126.919 270.434 126.387 274.676C123.779 295.596 112.103 347.325 111.723 349.452C111.483 350.757 109.393 362.179 108.95 370.144C108.558 377.197 106.734 391.811 107.127 397.332C107.19 398.281 107.279 399.332 107.355 400.434C107.734 405.436 108.216 411.666 107.988 415.516C107.684 420.543 106.607 430.218 104.619 440.931C103.86 445.008 101.909 451.897 100.529 459.178C98.1484 471.715 95.6918 484.669 95.4639 486.278C95.046 489.241 91.6143 502.309 92.7793 509.654L93.1338 510.907C93.3618 511.832 93.2731 511.414 93.5011 512.136C94.2355 514.402 94.7547 516.049 93.7923 518.974V518.999C93.3238 520.886 94.0456 526.559 95.1726 528.459C97.376 533.233 101.871 537.576 104.569 540.185C105.43 541.02 106.114 541.679 106.43 542.071L106.481 542.135L106.569 542.16C106.975 542.274 107.494 542.388 108.089 542.515C110.685 543.085 114.598 543.946 114.598 546.124C114.598 546.668 114.142 547.124 113.749 547.415C112.306 548.517 109.482 549.15 107.937 548.732L107.836 548.707L107.734 548.758C104.138 550.67 100.744 550.442 98.503 550.29C98.1864 550.265 97.8825 550.252 97.6166 550.239C95.4512 550.151 95.1979 550.252 94.5648 550.682C94.2862 550.86 93.919 551.113 93.1212 551.442C90.8418 552.354 86.1311 552.557 84.8268 552.392H84.8142H84.8015C81.775 552.392 79.5463 551.721 78.1913 550.379C76.5958 548.783 76.5958 546.592 76.5958 545.668V545.63C76.3678 543.958 77.001 537.994 77.6215 532.232C78.014 528.573 78.3813 525.128 78.5459 522.71V522.672V522.634C78.318 521.38 77.5075 515.732 77.7608 513.693C78.4446 508.185 78.6599 502.613 78.6979 488.836C78.7358 476.008 78.2926 463.471 78.1407 460.09C78.09 458.951 77.7355 452.999 77.3302 446.11C76.7477 436.056 76.0133 423.532 75.9626 421.936C75.8866 419.29 76.1906 404.385 76.3298 401.561C76.4312 399.535 76.925 388.784 76.8237 386.467C76.7857 385.517 76.4945 383.428 76.1526 381.009C75.7093 377.818 75.1395 373.854 75.0255 371.398C74.8989 368.713 75.5447 360.292 75.9373 355.252C76.0513 353.796 76.1399 352.656 76.1905 351.96C76.3932 348.92 77.115 322.429 77.0643 319.745C77.039 318.428 76.7604 310.247 76.4818 302.345C76.2285 295.153 76.0006 288.353 75.9753 287.238C75.9753 286.77 75.9753 286.289 75.9626 285.82C75.9499 284.63 75.9246 283.503 75.9879 282.692C79.5716 284.68 83.2692 285.959 87.0175 286.516C88.4611 286.732 89.9047 286.833 91.3357 286.833C93.8936 286.833 96.4263 286.491 98.9082 285.82C102.049 284.972 105.012 283.591 107.481 281.831C109.672 280.274 111.293 278.551 112.065 276.968L111.571 276.728C110.153 279.64 105.303 283.503 98.7689 285.288C92.9692 286.858 83.9657 287.352 73.9112 280.78C77.077 277.006 78.6219 271.473 78.5079 264.305C78.4193 258.468 77.2416 251.68 75.0129 244.133L74.481 244.285C76.6844 251.794 77.8621 258.531 77.9507 264.318C78.09 272.752 75.8993 278.83 71.4672 282.414C62.6157 288.783 46.4828 286.643 39.0115 280.603L38.6696 281.033C42.4306 284.072 48.4203 286.2 54.6759 286.706C55.6636 286.782 56.626 286.833 57.5884 286.833C59.7664 286.833 61.8559 286.63 63.844 286.213C66.7565 285.605 69.3018 284.566 71.4039 283.135C71.4545 283.87 71.4419 284.782 71.4292 285.82C71.4292 286.276 71.4165 286.744 71.4165 287.238C71.3912 288.365 71.1633 295.153 70.91 302.345C70.6314 310.247 70.3528 318.428 70.3275 319.745C70.2769 322.429 70.9987 348.92 71.2013 351.96C71.2519 352.656 71.3406 353.796 71.4545 355.252C71.8471 360.292 72.4929 368.713 72.3663 371.398C72.2523 373.854 71.6951 377.818 71.2393 381.009C70.8974 383.428 70.6061 385.517 70.5681 386.467C70.4668 388.797 70.9607 399.548 71.062 401.561C71.2013 404.385 71.5052 419.29 71.4292 421.936C71.3786 423.532 70.6441 436.043 70.0616 446.097C69.6564 452.999 69.3145 458.951 69.2511 460.09C69.0992 463.471 68.656 475.995 68.694 488.836C68.732 502.613 68.9472 508.185 69.631 513.693C69.8843 515.732 69.0739 521.367 68.8459 522.634V522.672V522.71C69.0105 525.128 69.3778 528.573 69.7703 532.232C70.3908 537.994 71.024 543.958 70.796 545.63V545.668C70.796 546.605 70.796 548.783 69.1878 550.379C67.8455 551.721 65.6421 552.392 62.641 552.392H62.5397C61.2354 552.557 56.5247 552.354 54.2453 551.442C53.4475 551.126 53.0676 550.872 52.8017 550.682C52.1686 550.265 51.9153 550.151 49.7499 550.239C49.484 550.239 49.1801 550.265 48.8635 550.29C46.6221 550.442 43.2284 550.657 39.632 548.758L39.5307 548.707L39.4294 548.732C37.8719 549.15 35.048 548.517 33.617 547.415C33.2245 547.124 32.7686 546.656 32.7686 546.124C32.7686 543.946 36.6815 543.085 39.2775 542.515C39.8726 542.388 40.3918 542.274 40.797 542.16L40.8857 542.135L40.9363 542.071C41.2529 541.666 41.9367 541.008 42.7978 540.185C45.4824 537.589 49.9905 533.245 52.1939 528.459C53.3336 526.559 54.0427 520.899 53.5868 518.999V518.974C52.6118 516.036 53.1436 514.402 53.8781 512.136C54.106 511.414 54.3719 510.604 54.5999 509.679V509.654C55.7776 502.309 51.6874 489.241 51.2695 486.278C51.0415 484.669 48.5849 471.702 46.2042 459.178C44.8239 451.897 43.5196 445.008 42.7598 440.931C40.7717 430.218 39.6954 420.543 39.3914 415.516C39.1508 411.666 39.632 405.436 40.0246 400.434C40.1132 399.332 40.1892 398.294 40.2525 397.332C40.6451 391.811 41.2023 377.197 40.797 370.144C40.3538 362.179 37.0994 350.731 36.7195 349.452C35.6685 345.805 33.2625 336.89 29.0203 318.136C24.5882 298.521 24.0437 286.744 26.1205 275.044C26.9182 270.561 26.437 259.443 26.8043 256.176C26.9816 254.669 27.1842 252.681 27.3994 250.566C27.8173 246.476 28.2985 241.841 28.6151 240.017C28.8304 238.789 30.2993 234.977 31.1731 230.925C32.2874 225.759 32.5027 220.491 32.3634 218.883C32.2748 217.832 32.642 215.831 32.7433 213.184C32.9459 207.676 32.8193 176.17 32.3887 173.017C32.2874 172.282 32.1101 171.13 31.8822 169.661C31.0971 164.545 31.0718 155.997 30.5272 149.299V149.235L30.4892 149.185C28.4758 145.525 22.0429 141.03 20.8653 136.18" fill="white" class="body-fill"></path>
<path d="M13.989 198.71C13.913 198.71 13.837 198.71 13.761 198.71C12.4061 198.66 10.9878 198.153 9.64551 197.254L9.94942 196.798C12.0768 198.216 15.1033 198.976 17.2561 196.836L17.6486 197.229C16.6609 198.216 15.4072 198.723 14.0016 198.723L13.989 198.71Z" fill="black" class="body-stroke"></path>
<path d="M67.3387 390.886C67.1614 390.531 63.0585 382.237 62.4634 377.628L63.0079 377.552C63.5904 382.073 67.7819 390.557 67.8326 390.645L67.3387 390.886V390.886Z" fill="black" class="body-stroke"></path>
<path d="M45.5204 390.95L45.1025 390.595C46.0649 389.481 48.5216 383.023 49.8386 379.553C50.2058 378.603 50.4844 377.856 50.6363 377.489L51.1429 377.704C50.9909 378.059 50.7123 378.806 50.3451 379.755C48.4963 384.605 46.4448 389.861 45.5078 390.962L45.5204 390.95Z" fill="black" class="body-stroke"></path>
<path d="M74.6074 216.616C72.3154 210.867 71.9735 192.202 72.0875 177.538C72.2141 160.544 73.0119 144.158 73.3918 140.143L73.9489 140.194C73.569 144.196 72.7839 160.556 72.6446 177.538C72.5307 192.138 72.8726 210.74 75.1266 216.401L74.6074 216.603V216.616Z" fill="black" class="body-stroke"></path>
<path d="M88.3981 146.943C87.765 146.943 87.1951 146.69 86.6886 146.184C83.6495 143.119 83.7761 131.203 83.8394 124.808C83.8394 124.036 83.8521 123.365 83.8521 122.82H84.4093C84.4093 123.377 84.4093 124.048 84.3966 124.821C84.3333 130.684 84.2066 142.904 87.0812 145.804C87.4737 146.209 87.9043 146.399 88.3981 146.399V146.956V146.943Z" fill="black" class="body-stroke"></path>
<path d="M133.377 198.71C131.972 198.71 130.706 198.191 129.73 197.216L130.123 196.823C132.263 198.963 135.302 198.216 137.43 196.785L137.734 197.241C136.391 198.14 134.96 198.647 133.618 198.698C133.542 198.698 133.466 198.698 133.39 198.698L133.377 198.71Z" fill="black" class="body-stroke"></path>
<path d="M58.9561 146.943V146.386C59.4373 146.386 59.8678 146.196 60.273 145.791C63.1476 142.891 63.0209 130.671 62.9576 124.808C62.9576 124.036 62.9449 123.365 62.9449 122.807H63.5021C63.5021 123.365 63.5021 124.023 63.5148 124.795C63.5781 131.19 63.7047 143.106 60.6656 146.171C60.1591 146.677 59.5892 146.931 58.9561 146.931V146.943Z" fill="black" class="body-stroke"></path>
<path d="M56.6508 539.336L56.2456 539.172C59.1328 532.017 59.3354 528.598 59.0948 522.988H59.538C59.6647 525.85 59.652 528.13 59.2721 530.586C58.8669 533.144 58.0691 535.841 56.6635 539.336H56.6508Z" fill="black" class="body-stroke"></path>
<path d="M65.4268 540.21C62.6029 534.74 62.8942 528.193 63.0461 524.685C63.0841 523.875 63.1095 523.241 63.0841 522.811H63.5273C63.54 523.241 63.5273 523.887 63.4893 524.698C63.3374 528.167 63.0588 534.638 65.832 540.007L65.4395 540.21H65.4268Z" fill="black" class="body-stroke"></path>
<path d="M81.3188 539.336L80.9136 539.172C83.8008 532.017 84.0034 528.598 83.7628 522.988H84.206C84.3326 525.85 84.32 528.13 83.9401 530.586C83.5348 533.144 82.7371 535.841 81.3315 539.336H81.3188Z" fill="black" class="body-stroke"></path>
<path d="M90.0821 540.21C87.2582 534.74 87.5495 528.193 87.7014 524.685C87.7394 523.875 87.7647 523.241 87.7394 522.811H88.1826C88.1953 523.241 88.1826 523.887 88.1446 524.698C87.9927 528.167 87.7141 534.638 90.4873 540.007L90.0947 540.21H90.0821Z" fill="black" class="body-stroke"></path>
<path d="M80.2678 390.886L79.7739 390.645C79.8119 390.557 84.0034 382.073 84.5986 377.552L85.1431 377.628C84.5479 382.237 80.4451 390.544 80.2678 390.886V390.886Z" fill="black" class="body-stroke"></path>
<path d="M101.441 390.949C100.504 389.848 95.8566 384.593 94.0077 379.743C93.6532 378.793 93.3619 378.046 93.21 377.691L93.7165 377.476C93.8684 377.843 94.147 378.59 94.5143 379.54C95.8312 383.01 100.884 389.468 101.846 390.582L101.428 390.937L101.441 390.949Z" fill="black" class="body-stroke"></path>
</svg>