<svg class="male-front-svg" width="145" height="554" viewBox="0 0 145 554" fill="none" xmlns="http://www.w3.org/2000/svg">
<title>Male front figure</title>
<path d="M126.73 309.614C126.23 307.821 125.432 304.981 126.096 303.916C130.529 295.685 129.627 296.739 131.162 294.418C132.032 293.09 131.57 290.209 131.998 288.72C133.061 280.489 133.869 282.955 134.327 280.489C134.866 285.524 135.732 296.765 131.998 300.545C129.624 302.939 128.252 306.166 126.73 309.614Z" fill="black" class="body-stroke"></path>
<path d="M126.73 308.348C126.357 307.159 126.42 304.53 126.942 303.622C128.111 301.62 129.322 298.928 130.529 296.951C131.213 295.819 131.22 294.42 131.556 293.152C131.162 284.921 133.714 280.691 134.075 278.589C134.497 282.88 136.227 295.685 131.494 299.816C129.628 301.855 128.284 306.022 126.73 308.348Z" fill="white" class="body-fill"></path>
<path d="M16.9394 310.881C17.4388 309.087 18.2371 306.248 17.5725 305.182C13.1404 296.951 14.0422 298.006 12.5072 295.685C11.6369 294.357 12.0986 291.475 11.6713 289.987C10.6078 281.755 9.80036 284.222 9.34145 281.755C8.8034 286.791 7.93668 298.032 11.6713 301.812C14.045 304.205 15.4171 307.433 16.9394 310.881Z" fill="black" class="body-stroke"></path>
<path d="M16.94 309.614C17.313 308.426 17.2499 305.797 16.7276 304.889C15.5586 302.887 14.3473 300.195 13.141 298.217C12.4571 297.086 12.4497 295.687 12.1139 294.418C12.5079 286.187 9.70273 283.857 9.34209 281.755C8.91928 286.046 7.44262 296.951 12.1761 301.082C14.0414 303.122 15.3855 307.289 16.94 309.614Z" fill="white" class="body-fill"></path>
<path d="M50.2791 40.4663C50.1175 40.4663 49.9558 40.4041 49.8314 40.2798C46.4987 36.9221 44.7825 26.0906 47.0956 22.9941C47.2199 22.8324 47.4065 22.7454 47.593 22.7454C47.6676 22.7454 47.7547 22.7578 47.8293 22.7951C49.6449 23.5413 50.4408 24.7475 50.3413 26.588C50.2045 28.9632 50.2792 31.3385 50.3538 33.1416C50.4159 34.5966 50.5527 36.0516 50.6895 37.5936C50.7517 38.3025 50.8263 39.0362 50.8885 39.7948C50.9134 40.0559 50.7641 40.3046 50.5279 40.4166C50.4408 40.4539 50.3538 40.4787 50.2667 40.4787L50.2791 40.4663Z" fill="black" class="body-stroke"></path>
<path d="M50.279 39.8321C50.08 37.4071 49.8313 35.2806 49.7443 33.1541C49.6448 30.953 49.6075 28.7394 49.7319 26.5383C49.8313 24.8222 49.023 23.9392 47.6053 23.3672C45.4913 26.2025 47.0955 36.6237 50.279 39.8446V39.8321Z" fill="white" class="body-fill"></path>
<path d="M93.0332 40.2423C92.9461 40.2423 92.859 40.2299 92.7844 40.1926C92.5481 40.0931 92.3989 39.8568 92.4114 39.5957L92.8466 28.7766C92.8466 28.5652 92.8715 28.3413 92.8839 28.1299C92.9212 27.6201 92.9461 27.1226 92.9088 26.6625C92.7347 24.7598 93.5679 23.4541 95.4083 22.795C95.483 22.7701 95.5452 22.7577 95.6198 22.7577C95.8187 22.7577 96.0177 22.8572 96.1296 23.0313C98.3432 26.2024 96.6893 36.8723 93.4933 40.0682C93.3689 40.1926 93.2072 40.2548 93.0456 40.2548L93.0332 40.2423Z" fill="black" class="body-stroke"></path>
<path d="M93.0334 39.6082C96.0553 36.5863 97.6222 26.2646 95.5952 23.3671C94.0905 23.9142 93.3568 24.934 93.5184 26.5879C93.5806 27.3092 93.4936 28.0553 93.4563 28.7891C93.3195 32.3332 93.1702 35.8774 93.021 39.6082H93.0334Z" fill="white" class="body-fill"></path>
<path d="M90.2976 553.988C88.5317 553.988 86.9399 553.155 85.5596 551.526C84.0921 549.785 82.8361 547.683 81.6174 545.656C80.9832 544.611 80.3987 543.617 79.7769 542.672C78.322 540.47 77.6007 537.971 77.5509 535.048C77.4639 529.403 77.3022 523.719 77.1406 518.21C77.0411 514.691 76.9416 511.159 76.8545 507.64C76.7799 504.531 76.7302 501.422 76.6804 498.313C76.6058 493.724 76.5312 488.986 76.382 484.273C76.1208 476.339 75.7478 468.256 75.3996 460.459L75.126 454.328C74.9146 449.49 74.641 443.782 74.2928 437.987C74.1311 435.301 73.9446 432.603 73.758 429.917C73.4596 425.713 73.1611 421.361 72.9746 417.058C72.6886 410.467 72.3901 403.64 72.6015 396.775C72.7508 392.211 73.2482 387.585 73.7207 383.121L73.7456 382.922C73.9197 381.305 74.0938 379.689 74.243 378.072C75.1384 368.882 75.2876 361.209 74.7405 353.934C74.6534 352.815 74.6037 351.696 74.5788 350.601C74.4544 344.595 74.4669 334.136 74.4793 323.056C74.4918 311.031 74.5166 298.67 74.3425 292.041C74.3425 288.671 74.3301 286.197 74.3052 284.331C74.2679 280.14 74.2555 279.021 74.6658 278.014C74.7032 277.939 74.7405 277.852 74.7778 277.765C74.1684 278.002 73.4596 278.126 72.6637 278.126C72.1663 278.126 71.6937 278.076 71.2585 278.026C72.9497 281.558 72.1165 290.711 71.4326 298.16C71.1963 300.821 70.9724 303.283 70.8978 305.099C70.7237 309.265 70.6242 313.767 70.5621 318.878C70.4501 330.356 69.9527 337.88 69.418 345.839C69.2314 348.661 69.0325 351.584 68.8584 354.78C68.7962 355.887 68.7091 356.993 68.6221 358.1C68.4604 360.14 68.3112 362.154 68.2739 364.119C68.2366 366.556 68.3236 369.18 68.5475 372.153L68.7091 374.267C69.0573 379.03 69.4304 383.967 70.0024 388.779C70.6491 394.139 70.8481 399.946 70.6367 407.06C70.4999 411.574 70.2263 416.138 69.9651 420.552C69.9651 420.552 69.7662 423.935 69.6791 425.44C69.5423 427.927 69.3931 430.414 69.2439 432.914C69.1195 434.953 68.9952 436.993 68.8832 439.032C68.7837 440.872 68.6718 442.725 68.5599 444.578C68.2739 449.242 67.9879 453.992 67.8013 458.68C67.5277 465.644 67.3163 472.72 67.1174 479.573L66.7692 491.374C66.4956 500.179 66.222 509.294 65.9981 518.248C65.9608 519.864 65.8986 521.481 65.8489 523.098C65.7245 526.58 65.6002 530.161 65.6375 533.68C65.6748 537.187 64.4188 540.01 63.1006 542.995L62.7027 543.89C62.3669 544.661 62.0933 545.432 61.8322 546.178C61.0985 548.268 60.4145 550.232 58.4123 552.11C57.2434 553.205 54.7687 553.976 52.4059 553.976C51.8711 553.976 51.3737 553.938 50.9011 553.864C49.9933 553.714 48.2896 553.441 47.2077 552.458C46.5362 551.837 45.7527 551.19 44.9444 550.494C42.3578 548.305 39.4851 545.88 38.0426 543.318C35.5554 538.891 36.6498 537.225 38.826 533.892L39.3856 533.021C43.0542 527.313 44.5962 522.041 46.387 515.922C47.0336 513.696 47.7052 511.433 48.501 509.033C48.4513 508.884 48.3269 508.622 48.2275 508.411C47.7051 507.267 47.0709 505.837 47.4564 504.904C47.7673 504.17 47.9166 503.474 48.016 503.051C48.0534 502.89 48.0782 502.765 48.1031 502.691C49.2223 498.811 48.7373 495.441 48.2275 491.871C47.9663 490.081 47.7051 488.24 47.6181 486.213C46.8222 469.164 43.8128 450.858 38.1421 428.636C36.4881 422.144 34.9212 415.777 33.9885 409.199C33.1802 403.516 33.2051 397.596 34.0507 391.615C34.6974 387.088 35.3689 382.561 36.0529 378.035L36.0902 377.823C36.6 374.428 37.1099 371.033 37.5949 367.638C37.9182 365.375 38.2167 363.112 38.5151 360.848C38.7017 359.381 38.8882 357.963 39.0872 356.546C39.5473 353.163 39.1245 349.656 37.769 345.801C35.7046 339.907 33.4786 334.186 31.7625 329.846C28.6411 321.949 27.5344 313.705 26.4773 305.733C25.8804 301.244 25.2586 296.605 24.2886 292.017C23.157 286.657 22.8212 281.185 22.4979 275.887C22.3487 273.413 22.187 270.863 21.9507 268.339C21.4035 262.432 21.4284 257.532 21.4782 252.347C21.4906 250.17 21.5155 247.932 21.4782 245.494C21.4036 237.921 22.8461 228.321 24.214 221.867C26.2659 212.216 31.4143 195.54 31.6257 194.831C31.5511 193.575 30.1583 161.503 26.8131 150.759C26.7136 150.436 26.1167 140.213 26.7758 144.777C27.4349 149.341 27.9696 150.398 28.0069 150.398C27.9323 150.137 28.2805 150.398 28.0069 150.398C31.4143 161.354 32.8071 193.588 32.8693 194.956C32.8693 194.993 32.8569 195.13 32.8444 195.167C32.6206 195.888 27.4722 212.602 25.4452 222.14C24.0897 228.532 22.6596 238.033 22.7342 245.507C22.759 247.944 22.7342 250.195 22.7342 252.359C22.6969 257.52 22.6596 262.382 23.2067 268.239C23.443 270.764 23.6047 273.326 23.7539 275.8C24.0772 281.098 24.413 286.52 25.5322 291.78C26.5146 296.431 27.1364 301.082 27.7333 305.596C28.8401 313.866 29.8723 321.663 32.9439 329.423C34.6601 333.763 36.8985 339.496 38.9628 345.428C40.3805 349.47 40.8282 353.163 40.3307 356.745C40.1318 358.162 39.9577 359.58 39.7711 360.998C39.4727 363.286 39.1742 365.574 38.8385 367.85C38.341 371.245 37.8312 374.64 37.3337 378.035C36.6498 382.636 35.9658 387.225 35.3067 391.826C34.4735 397.708 34.4486 403.503 35.2445 409.062C36.1772 415.591 37.7317 421.92 39.3732 428.362C45.0563 450.672 48.0782 469.052 48.8865 486.188C48.9736 488.166 49.2347 489.981 49.4835 491.735C50.0058 495.441 50.5156 498.935 49.3218 503.076C49.3094 503.138 49.2845 503.225 49.2596 503.35C49.1601 503.822 48.986 504.593 48.6378 505.426C48.4513 505.862 49.1104 507.304 49.384 507.926C49.7322 508.709 49.869 508.996 49.757 509.319C48.9363 511.744 48.2648 514.057 47.6181 516.283C45.8771 522.24 44.2231 527.861 40.4551 533.718L39.8831 534.588C37.7441 537.859 37.0353 538.966 39.1494 542.721C40.4675 545.072 43.2532 547.422 45.703 549.499C46.5735 550.232 47.3694 550.904 48.0658 551.538C48.8741 552.272 50.3291 552.508 51.1125 552.633C51.5354 552.695 51.9706 552.732 52.4307 552.732C54.7065 552.732 56.7833 551.949 57.5791 551.202C59.3575 549.536 59.9917 547.72 60.6632 545.793C60.9368 545.022 61.2104 544.226 61.571 543.405L61.969 542.497C63.2871 539.513 64.4312 536.926 64.3939 533.705C64.3566 530.149 64.481 526.555 64.6053 523.06C64.6675 521.444 64.7172 519.827 64.7546 518.21C64.9908 509.244 65.2644 500.141 65.5256 491.324L65.8738 479.573C66.0728 472.72 66.2842 465.644 66.5578 458.618C66.7443 453.905 67.0303 449.13 67.3163 444.516C67.4283 442.651 67.5402 440.81 67.6521 438.957C67.764 436.943 68.0376 432.528 68.0376 432.528C68.1868 430.14 68.3236 427.753 68.4604 425.365C68.5475 423.873 68.6345 422.381 68.7216 420.888L68.7464 420.478C69.0076 416.076 69.2812 411.524 69.418 407.022C69.6294 399.971 69.4304 394.226 68.7962 388.928C68.2117 384.078 67.8511 379.129 67.4904 374.354L67.3288 372.24C67.1049 369.23 67.0179 366.569 67.0552 364.094C67.0925 362.092 67.2417 360.053 67.4034 358.1C67.4904 356.944 67.5775 355.824 67.6397 354.705C67.8262 351.497 68.0127 348.587 68.1993 345.751C68.7216 337.805 69.219 330.294 69.3433 318.853C69.3931 313.742 69.505 309.228 69.6791 305.037C69.7537 303.184 69.9776 300.697 70.2263 298.073C70.8978 290.723 71.9051 279.668 69.6791 277.865C69.219 277.492 69.2812 277.143 69.3682 276.957C69.5423 276.559 69.903 276.559 70.0273 276.559C70.189 276.559 70.4128 276.596 70.7113 276.646C71.246 276.733 71.9549 276.857 72.7134 276.857C73.472 276.857 74.1187 276.721 74.6285 276.472C75.3249 276.111 76.4193 275.179 77.6877 272.729C77.7499 272.604 77.9365 272.256 78.3095 272.256C78.3966 272.256 78.4836 272.281 78.5707 272.318C79.1178 272.567 78.9064 273.089 78.8069 273.363C78.7075 273.624 78.5209 274.122 78.2225 274.905C78.0608 275.34 77.6256 275.925 77.1157 276.609C76.6058 277.28 76.0586 278.014 75.8721 278.474C75.5612 279.258 75.5737 280.426 75.611 284.319C75.6234 286.184 75.6483 288.659 75.6483 292.017C75.8224 298.657 75.8099 311.018 75.7851 322.982C75.7726 334.124 75.7602 344.57 75.8846 350.564C75.9094 351.646 75.9592 352.74 76.0462 353.835C76.6058 361.184 76.4442 368.919 75.5364 378.184C75.3747 379.863 75.1881 381.542 75.014 383.22C74.529 387.685 74.0441 392.286 73.8948 396.813C73.6834 403.627 73.9694 410.43 74.2555 416.996C74.442 421.286 74.7529 425.626 75.0389 429.817C75.2255 432.516 75.412 435.202 75.5737 437.9C75.9219 443.695 76.183 449.428 76.4069 454.253L76.6804 460.384C77.0411 468.194 77.4017 476.265 77.6753 484.211C77.8245 488.862 77.8991 493.588 77.9738 498.152C78.0235 501.372 78.0732 504.469 78.1479 507.578C78.2349 511.097 78.3344 514.616 78.4339 518.148V518.347C78.5955 523.806 78.7572 529.452 78.8443 534.999C78.8816 537.685 79.5407 539.948 80.8589 541.95C81.4806 542.895 82.1024 543.928 82.6993 544.922C83.9305 546.974 85.1492 549.014 86.5544 550.68C87.6861 552.011 88.9669 552.695 90.3597 552.695C92.0883 552.695 93.4438 551.675 93.6926 551.476C94.6004 550.755 95.8439 549.922 97.1621 549.039C99.9477 547.173 103.094 545.072 104.3 543.169C106.19 540.184 106.377 536.69 104.91 532.188C103.691 528.457 102 524.689 100.371 521.033C98.6544 517.191 96.8761 513.211 95.6201 509.244C95.4708 508.772 95.6449 508.113 95.9683 506.968C96.1797 506.21 96.503 505.066 96.4035 504.68C96.3041 504.332 95.6574 503.71 95.2346 503.3C94.5879 502.691 94.19 502.293 94.0781 501.845C92.4614 495.59 92.5485 492.754 92.934 486.375C93.2822 480.493 93.8542 474.735 94.3641 469.873C94.9858 463.916 96.9631 457.959 98.8782 452.201C100.134 448.396 101.428 444.504 102.298 440.698C102.895 438.087 103.504 435.463 104.114 432.851L104.188 432.553C105.73 425.912 107.322 419.048 108.79 412.27C109.573 408.652 110.406 403.901 109.996 399.126C109.411 392.522 108.541 385.944 107.757 380.373C107.285 377.002 106.738 373.57 106.215 370.262C105.556 366.121 104.91 361.968 104.362 357.864C104.002 355.091 104.064 352.417 104.574 350.154C105.631 345.366 106.787 341.548 108.217 338.128C112.943 326.775 118.502 311.678 119.509 295.573C119.758 291.569 119.895 288.249 120.031 285.028C120.193 281.011 120.355 277.218 120.703 272.828C120.902 270.391 121.126 267.966 121.35 265.541L121.673 265.429L121.362 265.404C121.636 262.382 121.934 259.248 122.146 256.177C122.456 251.949 122.643 247.696 122.705 243.53C122.742 241.378 122.382 239.165 122.046 237.026C121.922 236.28 121.81 235.546 121.71 234.812C121.474 233.096 121.263 231.343 121.064 229.651C120.603 225.796 120.131 221.854 119.26 218.049C117.582 210.761 115.754 204.544 114.547 200.427C113.801 197.866 113.304 196.174 113.204 195.49C112.645 191.212 111.936 149.901 114.647 142.614C116.338 138.087 116.724 137.751 117.171 137.751C117.209 137.751 117.358 137.788 117.395 137.801C118.091 138.05 118.104 138.286 116.326 143.559C116.251 143.795 116.214 144.093 116.226 144.417L116.276 145.436C116.388 147.936 116.5 150.51 116.649 153.047C116.96 158.034 117.258 162.921 117.644 167.895C117.892 171.178 118.241 174.511 118.576 177.745L118.601 177.944C118.701 178.839 118.825 179.759 118.95 180.642C119.173 182.221 119.41 183.85 119.447 185.48C119.671 195.142 120.952 203.984 123.352 212.515C127.257 226.368 129.52 237.138 130.689 247.422C131.099 251.041 130.9 260.156 129.545 263.651L129.271 264.335C128.152 267.195 127.17 269.657 127.219 272.679C127.257 275.266 127.331 277.914 127.406 280.464L127.555 285.811C127.642 288.821 127.717 291.892 127.854 294.889C127.854 295.063 127.854 295.262 127.854 295.461C127.829 296.108 127.841 296.692 128.102 296.804C128.239 296.854 128.363 296.891 128.488 296.891C128.625 296.891 128.749 296.854 128.873 296.779C129.532 296.406 130.042 295.163 130.204 294.131C130.415 292.763 130.589 291.358 130.739 290.002C130.925 288.41 131.112 286.794 131.385 285.202C131.659 283.647 132.169 282.031 132.94 280.364C133.562 279.009 134.494 278.325 135.725 278.325C135.937 278.325 136.148 278.35 136.372 278.387C136.708 278.449 136.932 278.773 136.882 279.108C136.782 279.693 136.31 279.904 136.086 280.004C136.024 280.029 135.987 280.053 135.937 280.078C134.855 280.737 134.544 281.533 134.805 282.988C135.004 284.07 135.34 285.202 135.676 286.296C136.185 287.987 136.72 289.728 136.782 291.482C136.919 295.175 135.899 298.073 133.673 300.349C132.902 301.144 132.281 302.027 131.634 302.96C131.373 303.333 131.112 303.706 130.851 304.079C130.216 304.937 129.445 305.634 128.699 306.305C128.426 306.554 128.202 306.753 127.978 306.964C127.393 307.512 127.045 307.984 126.871 308.469C126.722 308.879 126.672 309.364 126.709 309.999C126.734 310.347 126.772 310.658 126.834 310.931C126.884 310.931 127.232 310.732 127.48 310.471C128.314 309.601 129.06 308.593 129.781 307.623C130.216 307.039 130.627 306.479 131.062 305.945C132.592 304.241 134.009 302.4 135.377 300.61C136.049 299.739 136.72 298.856 137.392 298.011C137.566 297.799 137.79 297.463 137.877 297.115C139.071 292.402 140.277 286.993 140.19 282.628C140.065 275.987 141.11 253.453 141.869 237.013V236.877C142.254 228.793 142.565 221.817 142.664 218.671C142.727 216.706 142.851 214.679 142.963 212.888C143.062 211.284 143.162 209.63 143.224 208.013C143.423 203.014 143.436 197.654 142.304 192.431L141.993 191.051C141.446 188.638 140.886 186.151 140.787 183.652C140.637 179.896 140.662 176.091 140.687 172.41C140.7 170.32 140.725 168.244 140.7 166.167C140.625 156.367 141.048 146.133 141.446 136.246V136.097C141.695 130.19 141.943 124.072 142.08 118.152C142.192 113.39 140.14 107.296 138.113 101.974C136.957 98.9268 134.382 95.8676 131.236 93.8033C129.483 92.6592 126.697 92.0249 123.998 91.4032C122.606 91.0923 121.176 90.7565 119.845 90.3585C116.027 89.202 112.582 87.7346 108.939 86.1801C106.85 85.2848 104.698 84.377 102.472 83.5189C101.403 83.1085 100.271 82.7106 99.1145 82.3002C96.217 81.268 93.2697 80.2234 90.7452 78.9177C88.2581 77.6243 86.7161 75.3735 86.4176 72.5879C86.0446 69.168 85.858 65.7855 85.7212 63.2237C85.6466 61.8309 85.6715 60.4133 85.6839 58.9085V58.4857C85.4477 58.7842 85.2362 59.0329 84.9875 59.2692C84.4528 59.779 83.9181 60.3138 83.3958 60.8485C81.9781 62.2786 80.5106 63.7461 78.8443 64.915C76.3198 66.6809 73.9819 67.539 71.6937 67.539C69.3931 67.539 67.0427 66.6684 64.5307 64.8653C62.74 63.5844 61.1979 61.9677 59.6932 60.4008C59.0341 59.7044 58.375 59.0205 57.6911 58.3614C57.6786 58.3489 57.6537 58.3241 57.6413 58.3116V59.1324C57.6537 60.8361 57.6662 62.4403 57.6164 64.0445C57.5418 66.7804 57.4175 69.1929 57.2309 71.4189C56.9449 74.8387 55.3904 77.3881 52.6173 78.9923C50.9509 79.9623 49.0109 81.0566 47.0088 81.9022C38.9753 85.2972 31.0288 88.1201 23.642 90.657C23.2689 90.7814 22.9083 90.9182 22.5601 91.0549C21.4906 91.4529 20.4833 91.8384 19.3268 91.9379C11.2808 92.684 8.19679 97.1485 6.0454 103.615C4.32927 108.763 2.76237 113.812 2.41417 119.073C2.19032 122.48 2.87428 126.149 3.53338 129.705C4.13029 132.876 4.73964 136.147 4.71477 139.268C4.67746 144.18 4.54067 149.167 4.40388 153.98C4.24221 159.924 4.06812 165.993 4.08055 171.962C4.08055 173.79 4.00593 175.606 3.91888 177.371L3.84427 179.125C3.8194 179.709 3.80696 180.306 3.78209 180.903C3.71991 183.079 3.67017 185.305 3.18518 187.444C0.859694 197.679 1.10842 207.876 1.58098 215.611C1.66803 217.129 1.77995 218.658 1.89187 220.175C2.17789 224.229 2.47635 228.408 2.47635 232.549C2.47635 238.356 2.68775 245.395 2.91159 252.869C3.17274 261.686 3.44633 270.751 3.35928 277.753C3.35928 278.064 3.35928 278.312 3.32197 278.549C2.79967 283.075 3.23492 287.925 4.66503 293.807C4.75208 294.156 4.8267 294.529 4.91375 294.939C5.31169 296.804 5.78425 299.005 6.80398 300.224C8.74396 302.525 10.6715 304.9 12.5369 307.201C13.6063 308.506 14.6385 309.787 15.6707 311.043C15.7577 311.155 15.8448 311.292 15.9318 311.441C15.9567 311.479 15.994 311.553 16.0437 311.628C15.9567 310.683 15.0489 307.648 14.0043 306.094C13.5317 305.397 13.0965 304.701 12.6737 304.017C11.8405 302.686 11.0694 301.455 10.087 300.224C8.7937 298.595 8.20923 297.078 8.24654 295.461C8.27141 294.33 8.24654 293.186 8.24654 292.066C8.20923 289.716 8.1719 287.291 8.5201 284.941C8.831 282.864 8.42062 281.819 6.96564 280.936C6.55526 280.7 6.65476 280.24 6.69207 280.066C6.72937 279.83 6.81641 279.668 6.95321 279.568C7.06513 279.481 7.18949 279.444 7.32628 279.444C8.69422 279.693 9.39061 279.817 10.0373 281.061C10.7585 282.466 11.5669 284.095 11.8902 285.786C12.226 287.552 12.4249 289.368 12.6239 291.121C12.7607 292.303 12.8975 293.534 13.0716 294.728C13.2706 296.096 13.967 297.376 15.0116 298.309C15.5712 297.227 15.6334 296.071 15.6458 294.79C15.6831 291.992 15.6831 289.132 15.6707 286.383C15.6707 284.68 15.6707 283.026 15.6707 281.359C15.6707 281.023 15.6707 280.675 15.6707 280.339C15.6707 279.133 15.6458 277.902 15.8199 276.683C16.2676 273.45 15.7204 269.98 14.1038 265.765C12.3876 261.3 12.2757 249.909 12.8726 245.681C14.1784 236.404 16.0562 227.177 18.4687 218.285C19.6625 213.87 21.1797 208.05 22.3487 202.106C23.4306 196.634 23.928 191.15 23.841 185.79C23.841 185.455 23.8783 185.119 23.9156 184.808L23.9653 184.447C24.1767 182.408 24.3881 180.356 24.612 178.317C25.1094 173.653 25.6068 168.878 26.0048 164.177C26.2535 161.242 25.9799 157.934 25.7187 154.751C25.4825 151.754 25.2338 148.67 25.3954 145.859C25.4576 144.753 25.3581 143.969 25.2338 143.061C25.1591 142.551 25.097 142.004 25.0348 141.358C24.898 139.766 24.8109 137.602 24.9477 136.271C24.985 135.96 25.2586 135.712 25.5695 135.712C25.7934 135.737 25.9426 135.811 26.0545 135.948C26.154 136.072 26.2037 136.246 26.1913 136.408C26.0545 137.652 26.154 139.791 26.2784 141.258C26.3281 141.867 26.4027 142.39 26.4649 142.862C26.6017 143.87 26.7136 144.703 26.639 145.934C26.4773 148.657 26.726 151.704 26.9623 154.651C27.2235 157.897 27.4971 161.255 27.2359 164.289C26.838 169.015 26.3405 173.802 25.8431 178.441L25.8058 178.739C25.5944 180.692 25.3954 182.644 25.1964 184.597C25.184 184.733 25.1716 184.858 25.1467 184.995C25.1094 185.281 25.0721 185.542 25.0845 185.803C25.1716 191.25 24.6617 196.821 23.5674 202.38C22.386 208.361 20.8564 214.219 19.6625 218.646C17.2749 227.5 15.3971 236.665 14.1038 245.892C13.5193 250.009 13.6188 261.064 15.2603 265.354C16.964 269.782 17.5236 273.45 17.0386 276.895C16.8769 278.026 16.8894 279.208 16.9018 280.364C16.9018 280.713 16.9018 281.061 16.9018 281.396C16.9018 283.05 16.9018 284.717 16.9018 286.371C16.9018 289.169 16.9018 292.029 16.8769 294.84C16.8521 296.493 16.7526 298.11 15.6707 299.64C15.5712 299.777 15.4344 299.864 15.2603 299.888C15.2354 299.888 15.2105 299.888 15.1857 299.888C14.9991 299.888 14.8872 299.851 14.7877 299.777C13.1835 298.632 12.1016 296.879 11.8156 294.939C11.6415 293.733 11.5047 292.502 11.3679 291.308C11.1689 289.542 10.97 287.764 10.6466 286.047C10.485 285.214 10.1989 284.381 9.85074 283.585C9.86317 284.058 9.8383 284.568 9.75125 285.127C9.41548 287.39 9.4528 289.766 9.49011 292.054C9.50255 293.186 9.52742 294.355 9.49011 295.499C9.46524 296.804 9.96266 298.06 11.057 299.453C12.0767 300.734 12.8602 301.99 13.7058 303.333C14.1535 304.042 14.5763 304.713 15.0364 305.397C15.9443 306.753 17.7101 311.105 17.1008 312.473C16.9516 312.797 16.678 313.021 16.3546 313.058C16.2925 313.058 16.2303 313.07 16.1681 313.07C15.4344 313.07 15.0613 312.436 14.8499 312.088C14.7877 311.976 14.7504 311.901 14.7007 311.852C13.7431 310.683 12.7856 309.501 11.828 308.332L11.5917 308.046C9.7015 305.721 7.77397 303.346 5.834 301.045C4.6153 299.602 4.10543 297.227 3.69505 295.325C3.608 294.889 3.52094 294.491 3.43389 294.131C1.96647 288.099 1.53123 283.113 2.06597 278.437C2.09084 278.238 2.09083 278.039 2.09083 277.84C2.17788 270.789 1.90429 261.723 1.64314 252.968C1.4193 245.457 1.2079 238.381 1.2079 232.561C1.2079 228.47 0.90944 224.316 0.623417 220.287V220.126C0.511496 218.658 0.399574 217.178 0.312524 215.711C-0.160035 207.889 -0.408752 197.58 1.9416 187.183C2.40173 185.169 2.45148 183.005 2.51366 180.903C2.52609 180.294 2.55095 179.697 2.57582 179.088L2.65045 177.322C2.7375 175.556 2.8121 173.753 2.8121 171.974C2.79967 165.968 2.96133 159.874 3.123 153.992C3.25979 149.167 3.39658 144.193 3.43389 139.256C3.45876 136.259 2.84942 133.05 2.27737 129.942C1.59341 126.298 0.897008 122.555 1.13329 118.986C1.49392 113.576 3.0857 108.44 4.82671 103.217C6.82886 97.2106 9.95023 91.5399 19.1775 90.6819C20.1724 90.5948 21.0926 90.2342 22.0875 89.8736C22.4606 89.7368 22.8212 89.6 23.2067 89.4632C30.5811 86.9263 38.5027 84.1158 46.4989 80.7333C48.4264 79.9125 50.3291 78.843 51.9582 77.8979C54.3707 76.5051 55.7138 74.2791 55.9625 71.2945C56.149 69.0934 56.2734 66.7058 56.348 63.9948C56.3853 62.4154 56.3853 60.8112 56.3729 59.1324C56.3729 58.3489 56.3729 57.5406 56.3729 56.695C56.3729 56.4338 56.5345 56.21 56.7708 56.1105C56.8081 56.0981 56.9573 56.0732 56.9947 56.0732C57.1688 56.0732 57.3304 56.1478 57.4548 56.2722L57.9273 56.7945C58.1761 57.0681 58.3626 57.267 58.5491 57.466C59.2455 58.1375 59.917 58.8464 60.5761 59.5428C62.0436 61.0724 63.5483 62.6517 65.2395 63.858C67.5775 65.5368 69.6294 66.3078 71.6813 66.3078C73.7332 66.3078 75.7602 65.5368 78.123 63.8953C79.7023 62.7885 81.12 61.3584 82.5004 59.978C83.0351 59.4308 83.5698 58.8961 84.117 58.3738C84.4528 58.0505 84.7512 57.665 85.1243 57.18C85.3357 56.9064 85.5596 56.6079 85.8332 56.2722C85.9575 56.1229 86.1316 56.0359 86.3181 56.0359C86.3554 56.0359 86.4922 56.0608 86.5171 56.0732C86.7783 56.1602 86.9399 56.3965 86.9399 56.6701C86.9399 57.4287 86.9399 58.15 86.9275 58.8464C86.9151 60.4008 86.8902 61.8061 86.9648 63.174C87.0892 65.7233 87.2881 69.0934 87.6488 72.4635C87.9099 74.8263 89.2032 76.729 91.3173 77.8233C93.7672 79.1042 96.6771 80.1364 99.4876 81.1312C100.719 81.5665 101.85 81.9644 102.907 82.3748C105.171 83.2453 107.322 84.1531 109.411 85.0485C113.03 86.5905 116.438 88.0455 120.193 89.1772C121.462 89.5627 122.854 89.8736 124.21 90.1844C127.07 90.8311 129.968 91.4902 131.908 92.7711C135.265 94.9722 138.014 98.2552 139.27 101.538C141.334 106.973 143.436 113.203 143.324 118.19C143.187 124.196 142.938 130.352 142.689 136.309C142.291 146.195 141.869 156.405 141.943 166.167C141.956 168.256 141.943 170.345 141.931 172.434C141.906 176.103 141.869 179.896 142.03 183.627C142.13 186.014 142.677 188.439 143.199 190.802L143.51 192.182C144.679 197.542 144.667 202.989 144.468 208.088C144.406 209.717 144.306 211.358 144.207 212.95C144.095 214.865 143.97 216.805 143.908 218.733C143.809 221.954 143.473 229.316 143.112 237.1C142.354 253.578 141.309 276.049 141.433 282.64C141.52 287.154 140.289 292.663 139.083 297.451C138.946 298.011 138.61 298.508 138.362 298.819C137.69 299.652 137.044 300.51 136.384 301.368C134.979 303.209 133.549 305.074 132.007 306.778C131.609 307.275 131.199 307.822 130.801 308.37C130.042 309.389 129.271 310.422 128.388 311.354C128.251 311.503 127.518 312.212 126.734 312.212C126.473 312.212 126.237 312.125 126.038 311.976C125.777 311.765 125.677 311.466 125.628 311.242C125.553 310.894 125.491 310.521 125.466 310.098C125.416 309.29 125.491 308.643 125.702 308.071C126.025 307.188 126.672 306.517 127.12 306.094C127.356 305.87 129.271 302.861 129.507 302.65L132.629 298.172C132.629 298.172 134.199 295.206 134.074 291.886C134.012 290.294 133.586 283.225 133.586 283.225C133.537 282.926 133.499 282.64 133.487 282.366C133.089 283.424 132.803 284.456 132.629 285.451C132.368 286.993 132.181 288.584 131.995 290.126C131.833 291.544 131.671 292.962 131.447 294.355C131.398 294.628 130.975 297.066 129.507 297.899C129.184 298.073 128.848 298.172 128.5 298.172C128.227 298.172 127.928 298.11 127.642 297.998C126.535 297.551 126.585 296.307 126.61 295.474C126.61 295.275 126.61 295.113 126.61 294.976C126.473 291.992 126.399 288.957 126.311 286.023L126.162 280.601C126.088 278.014 126.001 275.353 125.963 272.729C125.926 269.471 126.933 266.896 128.102 263.912L128.376 263.228C129.682 259.907 129.843 251.091 129.445 247.584C128.276 237.374 126.025 226.667 122.146 212.876C119.721 204.233 118.427 195.291 118.203 185.529C118.166 183.975 117.942 182.383 117.718 180.853C117.594 179.946 117.457 179.013 117.358 178.105L117.333 177.931C116.997 174.698 116.649 171.365 116.4 168.032C116.015 163.045 115.716 158.158 115.405 153.159C115.269 150.97 115.169 148.732 115.07 146.556C113.316 158.755 113.95 191.586 114.448 195.366C114.522 195.963 115.07 197.791 115.741 200.116C116.96 204.245 118.788 210.488 120.479 217.813C121.374 221.692 121.847 225.672 122.307 229.527C122.506 231.218 122.718 232.959 122.954 234.675C123.053 235.397 123.178 236.13 123.29 236.864C123.65 239.078 124.011 241.341 123.974 243.592C123.899 247.77 123.712 252.048 123.414 256.301C123.19 259.46 122.892 262.619 122.618 265.665C122.394 268.103 122.17 270.528 121.971 272.965C121.623 277.318 121.462 281.098 121.3 285.09C121.163 288.336 121.026 291.668 120.778 295.685C119.77 311.976 114.162 327.197 109.399 338.638C108.006 341.983 106.874 345.739 105.83 350.452C105.357 352.579 105.295 355.091 105.643 357.727C106.19 361.843 106.85 366.022 107.484 370.051C108.019 373.409 108.553 376.841 109.038 380.236C109.822 385.819 110.705 392.423 111.289 399.051C111.724 403.988 110.866 408.863 110.058 412.569C108.591 419.359 106.999 426.223 105.457 432.876C104.823 435.625 104.188 438.323 103.567 441.022C102.684 444.889 101.378 448.819 100.109 452.624C98.2191 458.332 96.2667 464.227 95.6574 470.047C95.1475 474.897 94.5755 480.642 94.2273 486.487C93.8542 492.73 93.7671 495.503 95.334 501.571C95.3962 501.721 95.8937 502.193 96.1424 502.429C96.7891 503.051 97.473 503.698 97.6595 504.382C97.8585 505.091 97.5352 506.235 97.2243 507.329C97.0999 507.789 96.8388 508.709 96.8637 508.908C98.0948 512.801 99.8607 516.743 101.564 520.548C103.206 524.229 104.91 528.035 106.153 531.828C107.745 536.715 107.509 540.533 105.419 543.865C104.076 545.992 100.806 548.181 97.9207 550.108C96.6149 550.979 95.3962 551.787 94.5382 552.483C94.2273 552.732 92.5484 554 90.397 554L90.2976 553.988Z" fill="black" class="body-stroke"></path>
<path d="M27.4223 150.535C30.8919 161.665 32.2474 194.931 32.2474 194.931C32.2474 194.931 26.9373 212.08 24.8357 221.966C23.3558 228.93 22.0376 238.307 22.1123 245.47C22.1869 253.814 21.8014 259.945 22.5848 268.252C23.331 276.186 23.2563 284.07 24.9103 291.867C27.6337 304.689 27.5094 317.385 32.3469 329.61C34.4361 334.895 36.488 340.217 38.3658 345.577C39.6093 349.121 40.2311 352.815 39.7088 356.608C39.199 360.301 38.7513 364.007 38.2165 367.7C37.06 375.697 35.8165 383.68 34.6848 391.677C33.864 397.472 33.7894 403.279 34.6226 409.087C35.5553 415.64 37.1346 422.057 38.7637 428.461C43.6012 447.426 47.3444 466.565 48.2522 486.163C48.5382 492.319 50.4285 496.908 48.7123 502.84C48.6253 503.138 48.476 504.096 48.0408 505.128C47.6055 506.16 49.2471 508.772 49.1476 509.07C46.1133 518.123 45.0065 525.411 39.9078 533.345C37.3709 537.287 36.09 538.555 38.5896 542.995C40.4301 546.265 44.8324 549.412 47.6304 551.973C48.5258 552.794 49.9808 553.055 51.0005 553.229C53.5747 553.64 56.7209 552.831 57.9894 551.638C60.6009 549.188 60.862 546.514 62.1305 543.629C63.6103 540.246 65.0529 537.374 65.0156 533.668C64.9658 528.52 65.2519 523.359 65.3887 518.21C65.6622 507.54 65.998 496.871 66.3213 486.213C66.5949 477.023 66.8312 467.821 67.2043 458.631C67.4654 452.077 67.9131 445.523 68.2862 438.982C68.5473 434.456 68.8334 429.929 69.0821 425.39C69.4178 419.271 69.8531 413.153 70.0396 407.022C70.2262 400.954 70.1391 394.897 69.4178 388.841C68.7587 383.307 68.3732 377.736 67.9628 372.177C67.7639 369.491 67.6395 366.78 67.6893 364.094C67.739 360.973 68.0996 357.851 68.2737 354.73C68.9826 342.381 69.8282 334.323 69.9774 318.853C70.0272 314.252 70.1142 309.65 70.3132 305.062C70.6241 297.55 73.36 280.028 70.0769 277.38C69.2189 276.683 72.6387 278.2 74.9144 277.031C77.613 275.639 79.3291 270.055 77.6379 274.681C77.3643 275.427 75.7103 277.218 75.2999 278.238C74.7776 279.543 75.0388 281.347 75.0264 292.017C75.3621 304.651 75.0015 337.954 75.2751 350.589C75.2999 351.696 75.3497 352.79 75.4367 353.897C76.0461 361.992 75.7103 370.063 74.9393 378.146C74.3424 384.364 73.4968 390.582 73.2978 396.825C73.0864 403.565 73.3724 410.318 73.6584 417.058C73.9569 424.034 74.5662 431.011 74.9891 437.975C75.3124 443.422 75.5735 448.869 75.8222 454.328C76.2699 464.314 76.7549 474.3 77.0907 484.286C77.3518 492.07 77.3767 499.868 77.5632 507.652C77.7746 516.793 78.1104 525.92 78.2472 535.061C78.2845 537.747 78.9187 540.147 80.3613 542.348C82.2142 545.159 83.9303 548.566 86.0942 551.14C89.4145 555.07 93.1079 552.807 94.1028 552.011C96.8635 549.785 102.97 546.514 104.847 543.542C107.073 540.01 106.849 536.093 105.519 532.039C103.007 524.366 98.6667 516.793 96.2293 509.095C96.0179 508.423 97.2988 505.563 97.0252 504.556C96.7641 503.611 94.8614 502.38 94.6997 501.745C93.1204 495.627 93.195 492.829 93.5805 486.474C93.9162 480.978 94.4386 475.481 95.0106 469.997C96.0428 460.185 100.731 450.51 102.932 440.897C105.108 431.421 107.372 421.958 109.424 412.457C110.369 408.092 111.028 403.602 110.642 399.126C110.095 392.846 109.274 386.59 108.404 380.335C107.347 372.824 106.004 365.35 105.009 357.826C104.686 355.377 104.673 352.74 105.208 350.34C106.103 346.299 107.222 342.245 108.814 338.427C114.535 324.71 119.223 310.508 120.156 295.673C120.715 286.619 120.728 280.762 121.35 272.94C121.797 267.381 122.394 261.835 122.792 256.276C123.091 252.06 123.289 247.82 123.352 243.592C123.401 240.657 122.742 237.672 122.344 234.775C121.548 229.141 121.151 223.496 119.882 217.962C117.171 206.222 114.05 197.144 113.838 195.453C113.304 191.324 112.57 150.075 115.256 142.875C116.786 138.771 118.539 135.152 115.753 143.397C115.642 143.733 115.604 144.118 115.617 144.479C115.741 147.364 115.865 150.237 116.039 153.109C116.35 158.059 116.661 163.021 117.034 167.97C117.295 171.328 117.644 174.685 117.992 178.03C118.253 180.53 118.775 183.017 118.838 185.504C119.049 194.732 120.255 203.797 122.767 212.701C125.988 224.142 128.736 235.683 130.092 247.509C130.502 251.09 130.316 260.044 128.985 263.439C127.741 266.635 126.573 269.321 126.61 272.704C126.66 276.26 126.784 279.805 126.883 283.361C126.995 287.216 127.082 291.084 127.244 294.939C127.281 295.722 127.008 297.053 127.878 297.401C129.681 298.122 130.614 295.598 130.826 294.243C131.298 291.283 131.497 288.273 132.007 285.326C132.281 283.722 132.828 282.13 133.512 280.65C133.959 279.68 135.065 278.949 136.607 279.223C136.545 279.571 136.209 279.596 135.948 279.758C134.605 280.578 134.074 282.389 134.074 282.389C133.512 286.188 137.042 291.964 132.945 298.929C132.945 298.929 127.71 304.943 126.423 308.348C126.212 308.908 126.05 309.451 126.088 310.048C126.112 310.397 126.15 310.745 126.224 311.081C126.262 311.23 126.299 311.379 126.423 311.478C126.859 311.827 127.642 311.217 127.928 310.919C129.271 309.514 130.328 307.872 131.534 306.355C133.785 303.855 135.775 301.057 137.864 298.421C138.125 298.098 138.362 297.7 138.461 297.289C139.568 292.899 140.886 287.229 140.799 282.64C140.612 272.766 142.988 228.333 143.274 218.708C143.386 215.151 143.697 211.607 143.833 208.05C144.032 202.778 144.032 197.517 142.888 192.307C142.266 189.446 141.508 186.549 141.396 183.639C141.16 177.819 141.359 171.987 141.321 166.167C141.209 150.473 142.341 134.008 142.702 118.177C142.826 113.079 140.513 106.55 138.697 101.762C137.329 98.1681 134.32 95.0965 131.584 93.2933C128.823 91.4901 123.936 90.9554 120.019 89.774C113.988 87.9584 108.69 85.2474 102.696 82.9592C98.99 81.5415 94.5629 80.2109 91.0436 78.3829C88.7554 77.189 87.3253 75.1371 87.0393 72.5381C86.7035 69.4416 86.5045 66.3202 86.3553 63.2112C86.2558 61.1718 86.3305 59.1199 86.3305 56.67C85.5594 57.6276 85.1242 58.2991 84.5646 58.8339C82.5748 60.7365 80.7344 62.8506 78.4959 64.4175C73.6709 67.7876 69.6417 67.7627 64.9037 64.3678C62.3916 62.577 60.377 60.1023 58.1386 57.9261C57.8153 57.6152 57.5293 57.267 57.0194 56.7198C57.0194 59.381 57.0691 61.719 57.007 64.032C56.9448 66.4818 56.8204 68.9317 56.6215 71.3691C56.3727 74.4283 55.0172 76.8906 52.3187 78.4575C50.5155 79.5021 48.6874 80.5342 46.7848 81.3301C39.0124 84.6132 31.352 87.349 23.4553 90.0725C21.9755 90.5823 20.7319 91.1917 19.2893 91.3285C10.4724 92.1492 7.47538 97.3971 5.47323 103.428C3.75709 108.589 2.17775 113.675 1.81711 119.048C1.38186 125.589 4.16748 132.715 4.11773 139.268C4.04312 150.187 3.45864 161.068 3.49595 171.987C3.49595 174.374 3.35915 176.737 3.25966 179.125C3.14774 181.873 3.22235 184.684 2.613 187.332C0.486488 196.709 0.411888 206.16 0.996368 215.673C1.34457 221.307 1.87931 226.94 1.89174 232.574C1.89174 245.395 2.9239 264.956 2.77467 277.778C2.77467 278.026 2.77467 278.275 2.73737 278.511C2.14045 283.759 2.84928 288.908 4.09286 293.994C4.56542 295.946 4.98823 299.018 6.3686 300.659C9.37805 304.228 12.2756 307.872 15.2353 311.466C15.5089 311.802 15.7327 312.548 16.3172 312.461C17.424 312.299 15.6332 307.35 14.5762 305.758C13.2083 303.731 12.1512 301.779 10.6341 299.851C9.6019 298.558 8.89305 297.14 8.93036 295.499C9.00498 292.004 8.68165 288.485 9.19152 285.052C9.51485 282.889 9.12934 281.508 7.33859 280.426C7.30128 280.402 7.36346 280.215 7.37589 280.103C8.61947 280.327 9.01742 280.389 9.53972 281.384C10.2859 282.826 11.032 284.356 11.3305 285.935C11.8901 288.87 12.0642 291.88 12.5119 294.852C12.7481 296.444 13.6311 298.122 15.2353 299.267C16.2426 297.861 16.3172 296.319 16.3296 294.827C16.3794 290.35 16.3421 285.873 16.3545 281.396C16.3545 279.867 16.2799 278.312 16.4913 276.808C17.026 272.965 16.1182 269.147 14.7379 265.578C13.0963 261.288 12.9222 250.208 13.544 245.805C14.8373 236.59 16.6903 227.475 19.1152 218.484C20.5702 213.112 21.9382 207.715 23.0076 202.255C24.0771 196.846 24.6118 191.349 24.5123 185.803C24.5123 185.38 24.587 184.945 24.6243 184.522C25.3083 177.757 26.0917 171.004 26.6513 164.227C27.1239 158.481 25.7062 151.642 26.0544 145.884C26.1539 144.106 25.8554 143.161 25.6938 141.295C25.557 139.629 25.4823 137.54 25.6067 136.321" fill="white" class="body-fill"></path>
<path d="M71.5689 67.5139C68.9699 67.5139 66.2962 66.3823 63.3987 64.0692C59.0461 60.5872 55.5517 56.0979 53.0148 50.7257C51.8085 48.1763 51.2987 45.2912 50.8137 42.4932L50.7391 42.0704C49.4458 34.6462 49.7318 27.0604 50.0053 19.7233L50.0302 18.9648C50.1546 15.5201 50.7018 11.1178 53.8231 7.59849C58.0264 2.84803 63.1375 0.323573 68.9947 0.0748585C70.002 0.0375513 70.9969 0.000244141 72.0042 0.000244141C74.7649 0.000244141 78.3589 0.236523 81.7165 2.02727C83.7684 3.13405 85.2856 4.06673 86.6411 5.06159C90.2226 7.69797 92.262 11.3043 92.6848 15.7812C92.9957 19.0269 93.1823 22.3224 93.3813 25.506V25.7547C93.4807 27.0853 93.5553 28.4035 93.6424 29.7341C93.2569 36.3251 92.747 42.7046 90.8692 48.8852C90.6081 49.7308 90.3469 50.6137 89.8868 51.4096C87.7478 55.1403 84.7135 59.9032 80.2242 63.6713C77.0904 66.2952 74.3421 67.5263 71.5689 67.5263V67.5139Z" fill="black" class="body-stroke"></path>
<path d="M93.0086 29.7466C92.6977 25.0583 92.4987 20.3576 92.051 15.6694C91.6531 11.4039 89.7131 7.85971 86.256 5.29794C84.7264 4.16629 83.0724 3.1963 81.406 2.28849C77.5137 0.174417 73.2606 0.211724 69.0076 0.385825C63.0136 0.63454 58.1885 3.30823 54.2837 7.76022C51.5229 10.9065 50.8017 14.8735 50.6524 18.8405C50.3664 26.5755 50.0306 34.3478 51.3488 42.0207C51.8463 44.9307 52.3312 47.965 53.5624 50.6014C55.9625 55.7249 59.345 60.2639 63.7721 63.8454C69.4926 68.4715 74.1436 68.2477 79.8018 63.4475C83.8061 60.0525 86.741 55.7746 89.3152 51.2356C89.738 50.5019 89.9867 49.6438 90.2354 48.8231C92.1132 42.6052 92.5982 36.2008 92.9837 29.7217L93.0086 29.7466Z" fill="white" class="body-fill"></path>
<path d="M86.5175 92.9945C92.6607 93.0567 98.804 93.1562 104.935 93.2059C105.047 93.2059 105.146 93.206 105.258 93.1811C105.507 93.1562 105.743 93.1189 105.992 93.094V92.6836C105.606 92.609 105.233 92.4598 104.86 92.4598C98.9781 92.3852 93.0836 92.2608 87.2014 92.2857C84.6397 92.2981 82.053 92.4847 79.5161 92.8577C76.8176 93.2557 74.6911 96.3522 74.9647 98.9886C76.0963 96.7999 76.8176 94.6236 79.3296 93.6536C81.1203 92.9572 83.1101 92.9697 85.0252 92.9821C85.5351 92.9821 86.0325 92.9821 86.5424 92.9945H86.5175Z" fill="black" class="body-stroke"></path>
<path d="M59.7801 93.3179C61.4341 93.6661 62.9761 94.3749 64.0953 95.6061C64.8788 96.489 65.4011 97.5834 65.7617 98.7026C65.7617 98.7274 66.1596 97.9689 66.1721 97.7948C66.197 97.3844 65.7244 96.6755 65.5503 96.3149C65.1275 95.4817 64.6549 94.661 63.9585 94.0143C62.6528 92.808 60.9366 92.5096 59.2081 92.4971C51.5477 92.3976 43.8748 92.435 36.2144 92.435C35.8289 92.435 35.4309 92.5717 35.0454 92.6339C35.0454 92.7707 35.0579 92.9075 35.0703 93.0443C35.4434 93.3801 37.5699 93.0567 38.0424 93.0567C40.2187 93.0567 42.3949 93.0692 44.5712 93.0816C48.762 93.0941 52.9778 92.8826 57.1562 92.9946C58.0267 93.0194 58.9221 93.1065 59.7926 93.293L59.7801 93.3179Z" fill="black" class="body-stroke"></path>
<path d="M81.3564 366.183C83.3586 367.986 86.5795 376.778 86.1815 379.427C85.3235 376.853 84.627 374.639 83.8311 372.463C83.0601 370.349 82.0031 368.347 81.3564 366.183V366.183Z" fill="black" class="body-stroke"></path>
<path d="M93.4562 379.129C93.0832 377.027 97.3237 367.041 98.8782 365.947C97.0128 370.473 95.2346 374.801 93.4562 379.129Z" fill="black" class="body-stroke"></path>
<path d="M48.6132 379.129C46.8348 374.814 45.0565 370.486 43.2036 366.009C44.7332 366.991 48.9365 376.803 48.6132 379.129Z" fill="black" class="body-stroke"></path>
<path d="M58.325 379.265C58.126 376.368 61.4215 367.588 63.3615 365.959C61.6578 370.473 60.0412 374.726 58.325 379.265Z" fill="black" class="body-stroke"></path>
<path d="M11.0942 187.967C12.9969 191.399 14.713 194.508 16.3794 197.53C14.7752 197.119 11.3305 191.237 11.0942 187.967Z" fill="black" class="body-stroke"></path>
<path d="M131.634 188.451C130.59 191.983 128.426 195.117 126.001 197.878C125.889 197.815 125.777 197.753 125.665 197.703C127.394 194.582 129.122 191.461 130.838 188.339C130.963 188.377 131.51 188.414 131.634 188.451V188.451Z" fill="black" class="body-stroke"></path>
<path d="M37.3712 227.636C35.7297 224.789 34.1006 221.928 32.3721 218.919C33.7524 219.404 37.2469 225.162 37.7194 227.425C37.6075 227.5 37.4956 227.562 37.3712 227.636Z" fill="black" class="body-stroke"></path>
<path d="M107.957 227.363C108.566 225.311 112.62 219.18 113.49 218.683C111.65 221.916 110.008 224.776 108.367 227.649C108.23 227.549 108.093 227.462 107.957 227.363V227.363Z" fill="black" class="body-stroke"></path>
<path d="M73.9946 199.407V206.545C73.8453 206.545 73.7085 206.545 73.5593 206.545C73.2609 204.17 73.3977 201.795 73.3604 199.407C73.5718 199.407 73.7832 199.395 73.9821 199.382L73.9946 199.407Z" fill="black" class="body-stroke"></path>
<path d="M42.7188 150.187C42.4949 150.174 42.2835 150.162 42.0597 150.137C35.5807 149.689 30.5939 146.705 27.9202 140.661C26.4404 137.328 25.6569 133.809 25.06 130.227C25.0103 129.954 24.8984 129.693 24.5253 129.394C24.4382 129.68 24.2268 129.979 24.2641 130.24C25.0973 134.829 26.1792 139.306 28.4177 143.509L30.0219 145.623C34.735 150.61 40.3933 151.406 46.4122 150.97C46.6982 150.945 46.3003 150.448 46.2754 150.423C46.1137 150.274 45.1811 150.349 44.9448 150.336C44.1986 150.286 43.4525 150.237 42.7063 150.187H42.7188Z" fill="black" class="body-stroke"></path>
<path d="M119.261 129.307C118.887 129.605 118.776 129.867 118.726 130.14C118.116 133.709 117.345 137.241 115.866 140.574C113.739 145.362 109.722 148.918 104.499 149.901C103.915 150.013 97.2742 150.398 97.2617 150.373C97.299 150.547 97.3363 150.709 97.3736 150.883C103.393 151.318 109.063 150.522 113.764 145.536L115.368 143.422C117.607 139.218 118.676 134.741 119.522 130.153C119.571 129.891 119.36 129.593 119.261 129.307V129.307Z" fill="black" class="body-stroke"></path>
<path d="M97.3117 251.787C92.9467 253.814 87.9849 256.114 83.6821 259.335C81.9287 260.641 80.8592 262.22 80.4239 264.16L80.3245 264.571C79.8519 266.647 79.3793 268.712 78.9192 270.789C78.3596 273.338 77.029 275.34 74.9895 276.72C73.3107 277.852 71.52 277.864 69.8163 276.758C67.7768 275.439 66.4462 273.45 65.8493 270.851L65.5757 269.62C65.1528 267.754 64.73 265.901 64.2948 264.048C63.8595 262.22 62.8647 260.74 61.248 259.497C56.9453 256.201 52.0456 253.938 47.3076 251.749C47.2702 251.749 47.1583 251.787 47.0464 251.824C46.9967 251.836 46.9345 251.861 46.8599 251.886C46.9967 251.973 47.1335 252.048 47.2578 252.122C47.6558 252.359 47.9667 252.533 48.29 252.695C49.1605 253.142 50.031 253.577 50.9015 254.025C52.5803 254.871 54.3089 255.754 55.9877 256.649C56.796 257.084 57.5795 257.582 58.3381 258.067C58.7609 258.34 59.1837 258.601 59.6065 258.863C62.1558 260.417 63.7103 262.668 64.2202 265.553C64.3818 266.448 64.5808 267.344 64.7798 268.227C64.9539 268.998 65.1404 269.794 65.2772 270.59C65.7373 273.002 67.9633 276.472 70.2764 277.479C71.5199 278.026 74.0942 278.325 75.6859 276.82C77.7378 275.253 79.0311 273.102 79.5286 270.428C79.6902 269.57 79.8768 268.699 80.0633 267.866C80.2499 266.996 80.4488 266.1 80.6105 265.217C81.0955 262.581 82.5256 260.529 84.8511 259.111C87.5496 257.47 89.9373 256.065 92.1508 254.833C93.096 254.311 94.0908 253.839 95.0484 253.391C95.6329 253.117 96.2049 252.844 96.7769 252.558C97.0257 252.433 97.2619 252.272 97.5853 252.035C97.6723 251.973 97.7718 251.911 97.8713 251.836C97.8091 251.836 97.7594 251.836 97.7096 251.824C97.4982 251.799 97.3738 251.787 97.3117 251.824V251.787Z" fill="black" class="body-stroke"></path>
</svg>