<svg class="female-front-svg" width="141" height="553" viewBox="0 0 141 553" fill="none" xmlns="http://www.w3.org/2000/svg">
<title>Female figure front</title>
<path d="M139.519 265.477C139.469 262.159 139.418 259.31 139.393 258.766C139.38 258.36 139.393 257.664 139.405 256.866C139.443 255.144 139.507 252.776 139.253 251.332C138.937 249.446 139.089 235.516 139.165 230.312C139.165 229.577 139.291 227.64 139.456 224.955C139.95 216.775 140.862 201.541 140.14 196.64C139.456 191.942 138.747 188.498 138.354 187.156C137.974 185.889 137.544 182.217 137.734 180.229C137.823 179.241 137.81 176.202 137.785 172.973C137.759 169.718 137.747 166.363 137.835 165.046C138.038 162.348 137.785 136.047 137.759 133.92C137.759 133.717 137.759 133.413 137.759 133.046C137.759 130.703 137.759 125.233 137.139 119.167C136.366 111.595 134.91 105.643 132.821 101.515C130.972 97.8677 128.35 94.8665 125.02 92.6125C121.956 90.5357 119.36 89.8266 118.84 89.7C106.532 85.7744 98.1236 82.6846 93.1469 80.2279C88.9554 78.1638 87.8664 76.8975 87.1193 75.7832C86.0176 74.137 85.4604 70.6926 85.4604 65.5767V55.9907C87.0813 53.724 88.7908 51.052 89.2593 49.4818C89.5253 48.6081 90.2217 46.2654 90.8169 43.0489C90.9055 42.5804 90.9815 42.0992 91.0575 41.618C91.45 41.58 91.83 41.3774 92.2099 41.0355C94.1473 39.2626 95.7176 33.3996 95.6922 27.9671C95.6922 25.3965 95.2997 24.0542 94.5019 23.725C93.6788 23.3831 92.7291 24.2315 91.906 25.0419C91.8553 18.8117 91.4501 13.4931 89.424 9.78285C88.069 7.30087 85.4984 4.89487 82.206 3.00806C79.0402 1.2099 75.5831 0.120865 72.6959 0.0448864C72.506 0.0448864 72.2274 0.0448874 71.8855 0.0322242C70.4673 0.00689792 68.3398 -0.0310924 67.6687 0.0448864C64.4649 0.120865 60.9698 1.22256 57.8041 3.12203C54.8029 4.9202 52.3083 7.35152 50.966 9.78285C48.9272 13.4678 48.522 18.799 48.484 25.0293C47.6736 24.2188 46.7112 23.3831 45.9007 23.7123C45.103 24.0415 44.7231 25.3838 44.7104 27.9545C44.6977 33.387 46.2553 39.25 48.1928 41.0228C48.5727 41.3647 48.9525 41.5547 49.3451 41.6053C49.4211 42.0865 49.497 42.5551 49.5857 43.0363C50.1809 46.2527 50.8774 48.5827 51.1433 49.4691C51.6118 51.0267 53.3087 53.6733 54.9296 55.94V65.564C54.9296 70.6926 54.3724 74.1243 53.2707 75.7705C52.5236 76.8849 51.4472 78.1512 47.243 80.2153C42.2664 82.6593 33.8708 85.7617 21.5495 89.6873C21.0303 89.8139 18.4344 90.5231 15.3699 92.5998C12.0395 94.8665 9.41819 97.855 7.56937 101.502C5.47995 105.643 4.02372 111.582 3.25127 119.154C2.63077 125.22 2.63079 130.691 2.63079 133.033C2.63079 133.413 2.63079 133.704 2.63079 133.907C2.60546 136.034 2.3522 162.348 2.55481 165.033C2.65612 166.35 2.63076 169.718 2.60544 172.96C2.58011 176.189 2.56742 179.228 2.65606 180.216C2.84601 182.204 2.40281 185.889 2.03558 187.143C1.64302 188.473 0.465376 194.918 0.0854812 200.832C-0.243761 205.922 0.452666 217.053 0.908539 224.423C1.08582 227.222 1.21247 229.438 1.23779 230.299C1.32644 235.503 1.47838 249.433 1.14914 251.32C0.908543 252.776 0.959201 255.131 0.997191 256.853C1.02252 257.651 1.03519 258.348 1.00987 258.753C0.98454 259.297 0.933918 262.147 0.883266 265.464C0.807287 270.2 0.705966 276.089 0.629987 277.482C0.554008 279.052 1.42772 283.37 1.69365 284.662C2.2255 287.207 2.95999 290.234 3.30189 290.854C4.49223 292.969 14.4455 304.695 14.8634 305.201L15.1546 305.543L15.3319 305.138C15.4712 304.822 15.5725 304.492 15.6485 304.163C16.9021 301.922 16.3576 299.237 15.4205 297.464C14.4581 295.628 13.1032 293.779 12.0268 292.285C11.1404 291.057 10.3679 290.006 10.178 289.448C9.26623 286.789 8.65839 280.939 8.82301 276.57C9.40551 278.216 9.63344 280.179 9.84872 281.927C9.89937 282.37 9.95002 282.788 10.0007 283.193C10.4059 290.879 12.0395 292.374 12.9639 292.576C13.0525 292.589 13.1285 292.602 13.2045 292.602C13.6224 292.602 13.9643 292.361 14.1036 292.095C15.2433 289.993 15.142 284.003 15.0407 278.216C14.9773 274.291 14.914 270.58 15.2686 268.681V268.643C15.4585 265.528 15.3192 260.994 13.6603 257.069C12.0901 253.358 12.5967 248.268 12.7613 246.596C13.0019 244.178 14.8507 232.135 17.1807 223.17C17.8139 220.738 18.409 218.509 18.9916 216.369C20.5871 210.468 21.8407 205.821 22.4612 201.769C23.2843 196.425 24.0695 188.004 23.8162 185.497C24.6646 179.482 25.2724 174.087 25.5257 170.314C25.6777 168.123 25.8296 165.869 25.9942 163.691C26.1715 161.259 26.3361 158.955 26.4628 156.891C26.64 154.092 26.868 148.774 26.982 145.962C27.4252 148.166 28.1597 151.737 28.9574 155.662C30.6036 163.703 32.4778 172.808 32.7817 174.796C32.8324 175.088 32.8704 175.366 32.921 175.645C33.4022 178.646 33.7314 180.634 31.3761 185.066C28.7548 189.992 26.1336 198.261 25.1079 202.313C24.9812 202.795 24.8039 203.491 24.5633 204.377C23.6642 207.746 22.1573 213.368 20.8024 219.712C19.1562 227.437 18.2571 233.845 18.1178 238.745C17.7885 251.282 19.1055 263.894 20.1692 274.037L20.2705 275.063C21.1696 283.687 23.5123 295.235 27.4378 310.355C30.0718 320.511 34.9851 332.465 36.8339 336.973C37.1378 337.708 37.3531 338.227 37.467 338.543C38.0369 339.987 40.8608 347.42 41.0888 352.004C41.2787 355.803 40.3923 361.185 39.1766 368.644C38.9993 369.72 38.8221 370.822 38.6321 371.974C37.2392 380.585 35.5296 392.071 35.2637 397.921C35.0231 403.151 35.9475 408.571 36.7579 413.345C36.8339 413.801 36.9099 414.244 36.9859 414.687C37.3531 416.84 38.1889 420.17 39.2526 424.374C40.7088 430.136 42.7096 438.038 44.6471 447.535C47.0911 459.578 48.6613 471.291 49.4337 483.347C49.8263 489.438 49.2944 496.225 48.0028 501.505C47.1544 504.988 43.5454 516.752 41.1521 524.54C40.1643 527.756 39.3919 530.289 38.9866 531.618C37.5304 536.519 39.012 539.786 42.8616 545.257C46.7365 550.752 50.6114 552.69 52.2956 552.969C52.3463 552.969 52.3843 552.969 52.4476 552.969C53.0427 552.969 54.0938 552.386 56.6644 548.992C58.4626 546.612 60.4127 543.648 61.717 541.61C64.3256 537.545 64.3383 535.443 64.3383 533.746C64.3383 533.581 64.3383 533.417 64.3383 533.252C64.3636 521.311 64.7688 512.636 65.0347 506.9C65.2247 502.772 65.3513 500.037 65.2627 498.226C65.136 495.655 65.25 492.882 65.3513 490.197C65.4273 488.285 65.4907 486.487 65.478 484.828C65.44 480.865 65.8832 467.847 65.9718 465.719C66.0604 463.668 68.4285 421.626 68.6058 419.575C69.3149 410.812 69.3402 402.619 69.3402 398.668C69.3402 398.149 69.3402 397.706 69.3402 397.351C69.3402 395.692 68.9097 390.918 68.4032 385.384C67.694 377.673 66.8076 368.074 66.8582 363.705C66.8709 362.3 66.9722 360.729 67.0735 358.918C67.2001 356.766 67.3394 354.334 67.4027 351.397C67.4407 349.94 67.4914 347.382 67.5547 344.153C67.732 335.492 67.9979 322.411 68.2005 315.661C68.2765 313.04 68.4411 309.57 68.6058 305.898C69.0236 296.54 69.5555 284.902 69.2643 278.014C68.8717 268.883 66.8836 260.285 65.5413 255.423C66.567 255.98 67.922 256.322 69.4162 256.385C69.5682 256.385 69.7201 256.385 69.8721 256.385C71.7589 256.385 73.5317 255.916 74.912 255.093C73.5697 259.893 71.4929 268.681 71.1004 278.014C70.8091 284.902 71.3283 296.54 71.7589 305.898C71.9235 309.57 72.0881 313.04 72.1641 315.661C72.3667 322.411 72.6326 335.492 72.8099 344.153C72.8732 347.382 72.9239 349.94 72.9619 351.397C73.0252 354.334 73.1645 356.766 73.2911 358.918C73.3924 360.729 73.4811 362.287 73.5064 363.705C73.5697 368.074 72.6833 377.673 71.9615 385.384C71.455 390.918 71.0117 395.692 71.0244 397.351C71.0244 397.706 71.0244 398.149 71.0244 398.668C71.0244 402.606 71.0497 410.812 71.7589 419.575C71.9362 421.626 74.3042 463.668 74.3928 465.719C74.4815 467.847 74.9247 480.865 74.8867 484.828C74.874 486.474 74.9373 488.285 75.0133 490.197C75.1146 492.882 75.2286 495.668 75.102 498.226C75.0133 500.037 75.1399 502.759 75.3299 506.9C75.5958 512.636 75.9884 521.311 76.0263 533.252C76.0263 533.404 76.0263 533.569 76.0263 533.733C76.0263 535.43 76.0263 537.532 78.6476 541.597C79.9519 543.623 81.8894 546.599 83.7002 548.98C86.2708 552.373 87.3219 552.956 87.9171 552.956C87.9677 552.956 88.0184 552.956 88.069 552.956C89.7532 552.677 93.6408 550.74 97.5031 545.244C101.365 539.761 102.834 536.494 101.378 531.606C100.985 530.276 100.2 527.731 99.2126 524.527C96.8192 516.739 93.2103 504.975 92.3618 501.493C91.0702 496.212 90.5383 489.425 90.9309 483.334C91.7033 471.266 93.2735 459.552 95.7175 447.522C97.6423 438.025 99.6431 430.123 101.112 424.362C102.176 420.157 103.024 416.827 103.379 414.674C103.455 414.231 103.531 413.788 103.607 413.332C104.417 408.545 105.342 403.126 105.101 397.908C104.835 392.058 103.113 380.572 101.733 371.961C101.543 370.809 101.365 369.695 101.188 368.631C99.9723 361.185 99.0859 355.803 99.2759 351.992C99.5038 347.408 102.328 339.974 102.898 338.531C103.024 338.214 103.239 337.695 103.531 336.961C105.38 332.465 110.293 320.498 112.927 310.343C116.852 295.223 119.195 283.674 120.094 275.05L120.195 274.025C121.259 263.894 122.576 251.282 122.247 238.733C122.12 233.832 121.221 227.424 119.562 219.7C118.207 213.356 116.7 207.733 115.801 204.365C115.561 203.478 115.383 202.782 115.257 202.301C114.231 198.248 111.622 189.992 108.989 185.053C106.633 180.634 106.95 178.646 107.444 175.632C107.494 175.353 107.532 175.075 107.583 174.784C107.887 172.796 109.761 163.691 111.407 155.65C112.218 151.724 112.952 148.153 113.383 145.95C113.497 148.774 113.712 154.079 113.902 156.878C114.041 158.955 114.206 161.247 114.37 163.678C114.522 165.856 114.687 168.097 114.839 170.301C115.092 174.075 115.7 179.469 116.536 185.484C116.282 188.004 117.068 196.425 117.891 201.756C118.511 205.808 119.777 210.468 121.36 216.357C121.943 218.509 122.538 220.726 123.171 223.157C125.514 232.122 127.35 244.165 127.591 246.584C127.755 248.255 128.262 253.346 126.692 257.056C125.033 260.982 124.906 265.515 125.083 268.63V268.668C125.438 270.568 125.375 274.278 125.311 278.204C125.21 283.991 125.109 289.98 126.248 292.082C126.388 292.361 126.73 292.602 127.16 292.602C127.236 292.602 127.325 292.602 127.401 292.576C128.338 292.374 129.959 290.892 130.364 283.193C130.415 282.788 130.465 282.37 130.516 281.927C130.719 280.179 130.959 278.216 131.542 276.57C131.706 280.926 131.098 286.789 130.187 289.448C129.997 290.006 129.224 291.057 128.338 292.285C127.261 293.767 125.919 295.615 124.944 297.464C124.02 299.237 123.463 301.922 124.716 304.163C124.792 304.492 124.893 304.822 125.033 305.138L125.21 305.543L125.501 305.201C125.919 304.708 135.872 292.969 137.063 290.854C137.417 290.234 138.139 287.207 138.671 284.662C138.937 283.37 139.811 279.065 139.735 277.482C139.671 276.089 139.57 270.2 139.481 265.464L139.519 265.477Z" fill="black" class="body-stroke"></path>
<path d="M92.0451 25.7003C92.7163 25.0165 93.742 23.9781 94.3118 24.2187C94.6284 24.3453 95.1476 25.0038 95.1602 27.9543C95.1729 33.1589 93.666 38.9459 91.8552 40.6048C91.6272 40.8201 91.3993 40.9594 91.1714 41.01C91.6273 37.9709 91.8679 34.8177 91.9059 31.6393V30.7529C91.9312 29.056 91.9438 27.4098 91.9438 25.8142C91.9818 25.7762 92.0198 25.7383 92.0578 25.7003H92.0451Z" fill="white" class="body-fill"></path>
<path d="M48.5979 40.6048C46.787 38.9459 45.2675 33.1589 45.2928 27.9543C45.2928 25.0038 45.8246 24.3453 46.1412 24.2187C46.711 23.9781 47.7367 25.0165 48.4079 25.7003C48.4459 25.7383 48.4712 25.7762 48.5092 25.8016C48.5092 27.3211 48.5219 28.8787 48.5346 30.4869C48.5346 30.8668 48.5346 31.2467 48.5346 31.6393C48.5599 34.8177 48.8131 37.9709 49.269 41.01C49.041 40.9467 48.8131 40.8201 48.5852 40.6048H48.5979Z" fill="white" class="body-fill"></path>
<path d="M51.7006 49.2917C50.0417 43.7452 49.1679 37.8062 49.1046 31.6392C49.1046 31.2593 49.1046 30.8668 49.1046 30.4869C49.0159 21.9773 48.94 14.6326 51.4979 10.0359C53.9926 5.52783 60.7547 0.753819 67.7448 0.589198H67.7701C68.378 0.51322 70.594 0.551209 71.9236 0.576535C72.2655 0.576535 72.5441 0.576535 72.7341 0.589198C78.7364 0.753819 86.3343 5.17326 88.9809 10.0359C91.5262 14.6959 91.4501 22.1292 91.3615 30.7402V31.6266C91.2982 37.7935 90.4244 43.7325 88.7656 49.279C88.335 50.7226 86.6382 53.3692 84.992 55.6865C84.9793 55.7119 84.954 55.7372 84.9414 55.7625C83.979 57.1175 83.0292 58.3458 82.358 59.1689C77.0775 65.1712 73.9497 65.9564 72.2655 66.3869C72.0503 66.4376 71.8603 66.4882 71.683 66.5389C70.6066 66.8174 69.1251 66.6275 68.7958 66.5389C68.6186 66.4882 68.4286 66.4376 68.2133 66.3869C66.5291 65.969 63.4013 65.1839 58.1207 59.1689C57.4496 58.3458 56.4872 57.1048 55.5121 55.7372C55.5121 55.7245 55.4869 55.7119 55.4869 55.6865C53.8407 53.3692 52.1437 50.7226 51.7132 49.279L51.7006 49.2917Z" fill="white" class="body-fill"></path>
<path d="M9.68409 289.638C9.89937 290.271 10.6592 291.31 11.6089 292.627C12.6726 294.096 14.0149 295.932 14.952 297.73C15.6105 298.971 16.0537 300.706 15.7371 302.365C15.6231 301.364 15.2559 300.288 14.6608 299.11C13.6351 297.122 12.0901 295.185 10.7225 293.488C9.78541 292.323 8.97503 291.31 8.49383 290.487C7.62008 287.625 7.88596 282.699 8.29118 279.267C8.39248 282.952 8.87365 287.27 9.68409 289.638V289.638Z" fill="white" class="body-fill"></path>
<path d="M124.678 302.365C124.362 300.706 124.805 298.983 125.463 297.73C126.413 295.919 127.743 294.096 128.806 292.627C129.756 291.31 130.516 290.284 130.731 289.638C131.542 287.27 132.023 282.952 132.124 279.267C132.517 282.686 132.795 287.625 131.922 290.487C131.44 291.31 130.63 292.323 129.693 293.488C128.325 295.185 126.78 297.122 125.755 299.11C125.147 300.288 124.792 301.364 124.678 302.365V302.365Z" fill="white" class="body-fill"></path>
<path d="M25.3862 130.779C25.1582 132.324 25.0442 133.894 25.0442 135.452C25.0442 138.478 25.5635 141.251 26.5765 143.683C26.5259 144.936 26.1713 153.243 25.9434 156.852C25.8167 158.916 25.6395 161.221 25.4748 163.653C25.3229 165.831 25.1583 168.072 25.0063 170.275C24.753 174.036 24.1452 179.431 23.2967 185.446V185.484V185.522C23.5627 187.953 22.7775 196.361 21.9544 201.693C21.3339 205.719 20.0803 210.367 18.4974 216.243C17.9149 218.395 17.3198 220.611 16.6866 223.055C14.3439 232.059 12.4824 244.139 12.2418 246.571C12.0772 248.28 11.558 253.472 13.1916 257.309C14.8124 261.133 14.9391 265.566 14.7618 268.617C14.3945 270.58 14.4705 274.303 14.5339 278.241C14.6225 283.699 14.7365 289.879 13.6601 291.854C13.5968 291.968 13.4068 292.12 13.1156 292.057C12.8243 291.994 12.2672 291.677 11.7227 290.246C11.1275 288.688 10.7476 286.308 10.583 283.18V283.155C10.5323 282.749 10.4816 282.332 10.4183 281.888C10.2157 280.153 9.97512 278.191 9.39262 276.481C8.69615 274.468 7.63243 273.227 6.13818 272.708L5.94828 273.227C7.0753 273.619 7.84774 274.468 8.39226 275.544L8.31628 275.848C7.91106 277.279 6.59406 286.27 7.96168 290.689V290.715L7.98703 290.74C8.49355 291.614 9.31666 292.639 10.2791 293.842C11.6213 295.527 13.1536 297.426 14.154 299.376C15.1797 301.377 15.4582 303.061 14.9897 304.517C13.2675 302.491 4.83391 292.487 3.79553 290.613C3.23835 289.613 1.08563 279.812 1.1996 277.545C1.26292 276.139 1.36416 270.251 1.4528 265.515C1.50345 262.21 1.55415 259.348 1.57948 258.816C1.59214 258.386 1.57947 257.689 1.5668 256.879C1.52881 255.182 1.46548 252.852 1.70608 251.446C2.09864 249.116 1.79473 230.514 1.79473 230.324C1.78207 229.45 1.64276 227.234 1.46548 224.423C1.0096 217.066 0.325841 205.96 0.642419 200.908C1.02231 195.032 2.17461 188.65 2.56716 187.333C2.95972 186.028 3.40294 182.242 3.213 180.191C3.12436 179.228 3.13705 176.202 3.16237 172.985C3.1877 169.731 3.20039 166.35 3.11175 165.007C2.9218 162.45 3.13707 137.68 3.18772 133.919C3.18772 133.704 3.18772 133.413 3.18772 133.033C3.20039 118.648 4.84657 108.125 8.063 101.755C9.86117 98.1967 12.4318 95.2589 15.6736 93.0555C18.6747 91.0167 21.2074 90.3329 21.6886 90.2189H21.7012C34.0478 86.2807 42.4814 83.1782 47.4834 80.7089C51.8015 78.5815 52.9285 77.2519 53.7263 76.0742C54.4734 74.9472 54.9927 73.0604 55.2586 70.4644C55.4739 68.4003 55.4738 66.3996 55.4738 65.5511V56.6996C56.3602 57.9152 57.158 58.941 57.6519 59.5488C63.0464 65.6904 66.2881 66.5009 68.023 66.9441C68.2382 66.9947 68.4282 67.0454 68.5802 67.096H68.5928C68.8461 67.1593 69.5299 67.2606 70.2897 67.2606C70.7836 67.2606 71.3154 67.2227 71.784 67.096C71.9486 67.0454 72.1259 66.9947 72.3411 66.9441C74.076 66.5009 77.3178 65.6904 82.7123 59.5615C83.1935 58.9663 83.9913 57.9406 84.865 56.7376V65.5638C84.865 66.4122 84.865 68.413 85.0803 70.4771C85.3462 73.073 85.8653 74.9598 86.6125 76.0869C87.3976 77.2645 88.5247 78.5942 92.8555 80.7216C97.8574 83.1782 106.291 86.2934 118.638 90.2189H118.65C119.131 90.3456 121.664 91.0294 124.665 93.0681C127.92 95.2715 130.478 98.2094 132.276 101.768C135.505 108.137 137.138 118.673 137.151 133.046C137.151 133.426 137.151 133.717 137.151 133.932C137.202 137.693 137.417 162.462 137.227 165.02C137.126 166.362 137.151 169.731 137.176 172.998C137.202 176.214 137.214 179.241 137.126 180.203C136.936 182.242 137.379 186.041 137.772 187.345C138.164 188.662 138.861 192.069 139.544 196.741C140.254 201.591 139.342 216.787 138.848 224.955C138.683 227.639 138.569 229.59 138.557 230.337C138.557 230.527 138.253 249.129 138.645 251.459C138.886 252.852 138.823 255.182 138.785 256.891C138.759 257.702 138.747 258.398 138.772 258.829C138.797 259.361 138.848 262.222 138.899 265.528C138.975 270.264 139.076 276.165 139.152 277.57C139.253 279.837 137.113 289.638 136.556 290.639C135.505 292.5 127.071 302.504 125.362 304.543C124.893 303.099 125.172 301.402 126.21 299.401C127.211 297.451 128.743 295.552 130.085 293.868C131.047 292.677 131.871 291.639 132.377 290.765V290.74L132.402 290.715C133.77 286.295 132.453 277.279 132.048 275.835L131.972 275.569C132.516 274.493 133.301 273.645 134.416 273.252L134.226 272.733C132.732 273.265 131.668 274.493 130.971 276.506C130.389 278.203 130.148 280.166 129.946 281.914C129.895 282.357 129.844 282.787 129.794 283.18V283.205C129.629 286.346 129.237 288.726 128.654 290.271C128.11 291.702 127.552 292.019 127.261 292.082C126.97 292.145 126.78 291.994 126.717 291.88C125.653 289.917 125.754 283.724 125.856 278.279C125.919 274.341 125.982 270.618 125.628 268.655C125.45 265.604 125.577 261.171 127.198 257.347C128.819 253.51 128.312 248.318 128.148 246.609C127.907 244.177 126.058 232.097 123.703 223.093C123.07 220.662 122.462 218.433 121.892 216.281C120.309 210.405 119.055 205.757 118.435 201.731C117.612 196.399 116.827 187.991 117.093 185.56V185.522V185.484C116.244 179.469 115.636 174.074 115.383 170.313C115.231 168.11 115.079 165.869 114.915 163.691C114.737 161.259 114.573 158.967 114.446 156.89C114.206 153.155 113.838 144.569 113.8 143.784C114.826 141.34 115.358 138.554 115.358 135.49C115.358 133.919 115.244 132.362 115.016 130.817H114.459C114.674 132.286 114.801 133.843 114.801 135.49C114.801 146.747 107.215 154.016 95.4641 154.016C85.0803 154.016 76.9378 146.785 76.1147 136.819L75.5576 136.87C75.7728 139.415 76.444 141.834 77.5584 144.037C78.6347 146.165 80.1037 148.052 81.9145 149.634C85.5488 152.813 90.3608 154.573 95.4514 154.573C98.212 154.573 100.821 154.168 103.189 153.37C105.62 152.56 107.747 151.344 109.52 149.774C110.85 148.583 111.964 147.216 112.851 145.671C112.42 147.849 111.66 151.534 110.824 155.599C109.178 163.64 107.304 172.757 107 174.758C106.95 175.049 106.912 175.328 106.861 175.607C106.38 178.608 106.025 180.786 108.469 185.37C111.078 190.258 113.661 198.464 114.687 202.49C114.813 202.972 114.991 203.681 115.231 204.554C116.903 210.81 121.36 227.424 121.651 238.796C121.981 251.307 120.664 263.894 119.6 274.012L119.499 275.038C118.6 283.636 116.257 295.147 112.344 310.254C109.723 320.372 104.822 332.3 102.973 336.796C102.669 337.53 102.454 338.062 102.327 338.379C101.53 340.43 98.8957 347.458 98.6678 352.017C98.4779 355.879 99.3643 361.286 100.593 368.77C100.77 369.847 100.947 370.948 101.137 372.101C102.53 380.699 104.24 392.172 104.505 397.984C104.746 403.151 103.834 408.545 103.024 413.294C102.948 413.75 102.872 414.193 102.796 414.636C102.441 416.763 101.593 420.081 100.529 424.285C99.0604 430.06 97.0596 437.962 95.1348 447.472C92.6908 459.54 91.1205 471.278 90.3354 483.359C89.9429 489.501 90.4747 496.351 91.779 501.695C92.6275 505.19 96.2491 516.967 98.6424 524.755C99.6302 527.971 100.403 530.504 100.808 531.833C102.201 536.506 100.757 539.672 97.0089 545.003C93.248 550.347 89.5377 552.221 87.9295 552.487C87.6635 552.525 86.7644 552.259 84.1052 548.739C82.3197 546.371 80.3823 543.42 79.078 541.394C76.5453 537.469 76.5453 535.442 76.5453 533.822C76.5453 533.644 76.5453 533.492 76.5453 533.328C76.52 521.374 76.1147 512.699 75.8488 506.95C75.6715 502.987 75.5322 500.112 75.6209 498.339C75.7475 495.744 75.6335 492.958 75.5322 490.26C75.4562 488.361 75.3929 486.563 75.4056 484.917C75.4436 480.94 75.0004 467.91 74.9117 465.783C74.8231 463.731 72.4551 421.664 72.2652 419.613C71.556 410.875 71.5434 402.682 71.5307 398.756C71.5307 398.237 71.5307 397.794 71.5307 397.44C71.5307 395.819 71.9612 391.045 72.4678 385.536C73.1769 377.812 74.076 368.2 74.0127 363.794C74 362.375 73.8987 360.805 73.7974 358.982C73.6707 356.829 73.5315 354.397 73.4682 351.472C73.4302 350.016 73.3795 347.458 73.3162 344.229C73.1389 335.567 72.873 322.486 72.6704 315.737C72.5944 313.103 72.4298 309.633 72.2652 305.961C71.8473 296.616 71.3154 284.991 71.6067 278.127C72.0245 268.402 74.2659 259.285 75.5829 254.688C75.7729 254.536 75.9501 254.384 76.1147 254.207C77.571 252.763 85.5361 245.342 99.8835 240.999L99.7189 240.467C85.2449 244.849 77.1911 252.345 75.7222 253.814C74.3039 255.232 71.9359 256.005 69.3906 255.904C67.7444 255.84 66.2502 255.397 65.2751 254.713C65.1865 254.65 65.0978 254.587 65.0218 254.523C64.8825 254.409 64.7432 254.283 64.6419 254.143L64.6166 254.118C60.4631 250.281 54.8153 247.027 50.8011 244.975C46.0271 242.531 42.0129 240.961 40.5566 240.467L40.3794 240.999C43.4439 242.037 56.4868 247.381 64.224 254.523C64.3887 254.713 64.5786 254.89 64.7939 255.055C66.1235 259.766 68.2636 268.668 68.6688 278.127C68.9601 284.991 68.4409 296.628 68.0104 305.961C67.8458 309.633 67.6938 313.103 67.6051 315.737C67.4025 322.486 67.1366 335.567 66.9593 344.229C66.896 347.458 66.8454 350.016 66.8074 351.472C66.744 354.397 66.6047 356.829 66.4781 358.982C66.3768 360.792 66.2882 362.363 66.2629 363.794C66.1995 368.188 67.0986 377.812 67.8077 385.536C68.3142 391.057 68.7574 395.819 68.7448 397.44C68.7448 397.794 68.7448 398.237 68.7448 398.769C68.7448 402.707 68.7195 410.888 68.0104 419.625C67.8331 421.677 65.4524 463.744 65.3764 465.795C65.2878 467.923 64.8445 480.966 64.8825 484.929C64.8952 486.563 64.8319 488.361 64.7559 490.273C64.6546 492.97 64.5407 495.769 64.6673 498.352C64.7559 500.138 64.6166 503 64.4394 506.963C64.1734 512.712 63.7808 521.386 63.7428 533.328C63.7428 533.492 63.7428 533.657 63.7428 533.822C63.7428 535.442 63.7428 537.456 61.2102 541.394C59.9059 543.42 57.9685 546.371 56.183 548.739C53.5237 552.259 52.6246 552.538 52.3587 552.487C50.7631 552.221 47.0528 550.347 43.2792 545.003C39.5309 539.672 38.0873 536.506 39.4803 531.833C39.8728 530.504 40.658 527.971 41.6457 524.755C44.039 516.967 47.6607 505.19 48.5091 501.695C49.8134 496.364 50.3453 489.513 49.9527 483.359C49.1803 471.266 47.61 459.527 45.1533 447.472C43.2285 437.962 41.2151 430.06 39.7588 424.285C38.6951 420.094 37.8594 416.776 37.4921 414.636C37.4162 414.193 37.3402 413.75 37.2642 413.294C36.4538 408.545 35.5421 403.151 35.7827 397.984C36.0486 392.159 37.7581 380.699 39.151 372.101C39.341 370.948 39.5182 369.834 39.6955 368.77C40.9238 361.286 41.7976 355.879 41.6203 352.017C41.3924 347.471 38.7711 340.43 37.9607 338.379C37.834 338.062 37.6188 337.53 37.3148 336.796C35.466 332.3 30.5654 320.372 27.9442 310.254C24.0312 295.159 21.6885 283.636 20.7895 275.038L20.6881 274.012C19.6244 263.894 18.3075 251.307 18.6367 238.796C18.9406 227.411 23.3854 210.81 25.0569 204.554C25.2975 203.668 25.4748 202.972 25.6014 202.49C26.6271 198.464 29.2105 190.258 31.8191 185.37C34.2631 180.786 33.9084 178.608 33.4272 175.607C33.3893 175.328 33.3386 175.049 33.288 174.758C32.9841 172.757 31.11 163.64 29.4638 155.599C28.6153 151.496 27.8555 147.773 27.4249 145.608C28.3113 147.178 29.4384 148.571 30.7934 149.774C32.5662 151.344 34.6936 152.56 37.1249 153.37C39.4929 154.168 42.1015 154.573 44.8621 154.573C49.9654 154.573 54.7774 152.826 58.399 149.634C60.2098 148.052 61.6661 146.165 62.7551 144.037C63.8695 141.834 64.5533 139.415 64.7559 136.87L64.1988 136.819C63.3757 146.785 55.2459 154.016 44.8494 154.016C33.1107 154.016 25.5255 146.747 25.5255 135.49C25.5255 133.843 25.6521 132.286 25.8674 130.817H25.3102L25.3862 130.779Z" fill="white" class="body-fill"></path>
<path d="M76.1148 94.7775L75.583 94.6255C75.7856 93.9164 76.0642 93.1819 76.7607 92.5741C77.6218 91.827 78.9134 91.4597 80.6989 91.4597H86.1694V92.0169H80.6989C76.8873 92.0169 76.3808 93.8151 76.1148 94.7775Z" fill="black" class="body-stroke"></path>
<path d="M70.4924 204.035C70.2518 204.035 70.0239 203.946 69.8339 203.782C69.0868 203.111 69.0235 201.249 69.3274 199.844C69.4794 199.16 69.8593 197.969 70.6951 197.729L70.8597 198.261C70.4545 198.375 70.0872 199.033 69.8719 199.97C69.5554 201.376 69.7073 202.933 70.2012 203.377C70.3405 203.503 70.4925 203.528 70.6824 203.453L70.8597 203.972C70.7331 204.022 70.6064 204.035 70.4797 204.035H70.4924Z" fill="black" class="body-stroke"></path>
<path d="M127.211 191.131L126.894 190.675C128.667 189.472 129.996 187.687 130.655 182.951L131.199 183.027C130.883 185.268 130.402 187.003 129.718 188.307C129.097 189.485 128.3 190.384 127.198 191.131H127.211Z" fill="black" class="body-stroke"></path>
<path d="M13.2046 191.131C12.103 190.384 11.3052 189.485 10.6847 188.307C10.0009 187.003 9.5197 185.268 9.20312 183.027L9.74763 182.951C10.4061 187.687 11.7357 189.46 13.5085 190.675L13.192 191.131H13.2046Z" fill="black" class="body-stroke"></path>
<path d="M64.3255 94.7775C64.0596 93.8151 63.5531 92.0169 59.7415 92.0169H54.271V91.4597H59.7415C61.527 91.4597 62.8186 91.827 63.6797 92.5741C64.3762 93.1819 64.6548 93.9164 64.8574 94.6255L64.3255 94.7775Z" fill="black" class="body-stroke"></path>
<path d="M57.7535 368.251H57.1963C57.2849 364.844 59.7416 361.438 62.1223 359.564L62.4642 359.995C60.2608 361.729 57.8421 365.047 57.7535 368.238V368.251Z" fill="black" class="body-stroke"></path>
<path d="M49.9526 367.212L49.9272 367.111C49.37 364.173 49.0535 362.565 46.8374 359.969L47.2553 359.602C49.5727 362.299 49.8892 363.971 50.4717 366.997L50.4971 367.098L49.9526 367.2V367.212Z" fill="black" class="body-stroke"></path>
<path d="M82.6872 368.251C82.5986 365.06 80.18 361.742 77.9766 360.007L78.3184 359.576C80.6991 361.451 83.1558 364.857 83.2444 368.238H82.6872V368.251Z" fill="black" class="body-stroke"></path>
<path d="M90.4875 367.212L89.9429 367.111L89.9682 367.01C90.5507 363.983 90.8673 362.312 93.1846 359.615L93.6025 359.982C91.3865 362.565 91.0699 364.186 90.5127 367.124L90.4875 367.225V367.212Z" fill="black" class="body-stroke"></path>
</svg>