<svg width="145" height="554" viewBox="0 0 145 554" fill="none" xmlns="http://www.w3.org/2000/svg">
<title>Female Figure Back</title>
<path d="M144.186 273.663C144.122 270.249 144.072 267.291 144.059 266.733C144.046 266.314 144.059 265.603 144.072 264.778C144.11 263.001 144.173 260.565 143.919 259.067C143.589 257.112 143.742 242.77 143.83 237.401C143.843 236.564 143.957 234.051 144.097 230.852C144.503 221.701 145.189 206.394 144.833 202.701C144.427 198.513 143.488 194.578 142.993 192.915C142.612 191.621 142.155 187.813 142.345 185.77C142.447 184.754 142.422 181.619 142.396 178.294C142.371 174.943 142.345 171.478 142.447 170.12C142.65 167.341 142.396 140.23 142.371 138.034C142.371 137.819 142.371 137.514 142.371 137.133C142.371 134.722 142.371 129.086 141.724 122.829C140.924 115.023 139.426 108.893 137.281 104.629C135.377 100.872 132.674 97.7747 129.247 95.4521C126.087 93.3071 123.409 92.5709 122.876 92.444C110.184 88.3952 101.515 85.2095 96.3871 82.6837C92.0591 80.5515 90.9422 79.2569 90.1807 78.1019C89.0511 76.4011 88.4672 72.86 88.4672 67.5801V57.8452C90.4726 55.0402 91.9449 52.4891 92.3891 50.9914C92.6556 50.0902 93.3791 47.6787 93.9883 44.3661C94.0772 43.8838 94.166 43.3888 94.2421 42.8938C94.6483 42.8557 95.0417 42.6526 95.4225 42.2972C97.4279 40.4696 99.0398 34.4281 99.0144 28.8308C99.0144 26.1782 98.6209 24.7947 97.7833 24.452C96.9329 24.1094 95.9556 24.9724 95.1052 25.8101C95.0544 19.3879 94.6356 13.9048 92.5541 10.0845C91.158 7.52068 88.518 5.04571 85.1165 3.1038C81.8546 1.23805 78.2881 0.133835 75.3181 0.0449893C75.1277 0.0449893 74.8358 0.0449903 74.4804 0.0322981C73.0208 0.00691374 70.8251 -0.0311637 70.1397 0.0449893C66.8397 0.133835 63.2224 1.25075 59.9606 3.20534C56.8637 5.0584 54.2998 7.57145 52.9037 10.0718C50.7968 13.8668 50.378 19.3625 50.3399 25.7974C49.5022 24.9597 48.5122 24.0967 47.6745 24.4394C46.8495 24.782 46.4561 26.1655 46.4434 28.8182C46.418 34.4154 48.0299 40.4569 50.0353 42.2846C50.4161 42.6399 50.8222 42.843 51.2157 42.8811C51.2918 43.3761 51.3807 43.8711 51.4695 44.3534C52.0787 47.666 52.8022 50.0775 53.0687 50.9787C53.6652 52.9587 55.9118 56.2459 56.9398 57.6929V67.5674C56.9398 72.8473 56.3687 76.3884 55.2264 78.0892C54.4522 79.2442 53.3479 80.5388 49.0199 82.6711C43.8923 85.1968 35.2362 88.3825 22.5313 92.4313C21.9983 92.5583 19.3202 93.2944 16.1599 95.4394C12.733 97.7747 10.0168 100.859 8.12571 104.616C5.96804 108.88 4.47036 114.998 3.68345 122.816C3.04884 129.074 3.03617 134.709 3.03617 137.12C3.03617 137.501 3.03617 137.806 3.03617 138.022C3.01079 140.217 2.75695 167.341 2.96002 170.107C3.06156 171.466 3.03615 174.93 3.01076 178.281C2.98538 181.607 2.9727 184.742 3.06154 185.757C3.25193 187.8 2.80769 191.595 2.41423 192.903C2.21116 193.588 1.17042 197.269 0.573888 202.688C0.0662014 207.321 0.840407 222.45 1.31002 231.487C1.46232 234.457 1.57655 236.602 1.58925 237.401C1.67809 242.77 1.83039 257.125 1.50039 259.067C1.24655 260.565 1.31002 263.001 1.34809 264.766C1.37348 265.591 1.38618 266.301 1.3608 266.72C1.33541 267.279 1.28464 270.223 1.23387 273.638C1.14502 278.524 1.04347 284.591 0.980009 286.025C0.903856 287.65 1.79233 292.092 2.07156 293.425C2.61732 296.052 3.36615 299.174 3.73423 299.809C4.95268 301.992 15.2207 314.087 15.6522 314.595L15.9314 314.925L16.1218 314.544C16.2868 314.227 16.3883 313.884 16.4518 313.529C17.7464 311.219 17.1879 308.452 16.2233 306.612C15.2714 304.81 13.9387 302.995 12.8599 301.522C11.8572 300.164 10.9815 298.984 10.8291 298.375C10.4992 297.004 10.3723 294.783 10.22 292.206C10.093 290.099 9.96609 287.7 9.68686 285.187C9.71225 284.972 9.76302 284.756 9.81379 284.578C9.88994 284.883 9.99147 285.454 10.0803 286.545V286.584C10.3469 287.688 10.4103 288.843 10.4865 289.96C10.5246 290.645 10.5753 291.292 10.6515 291.902C11.248 298.133 12.2634 301.433 13.6976 301.713C14.2434 301.814 14.7003 301.446 14.9033 301.065C16.071 298.908 15.9695 292.727 15.8679 286.761C15.8045 282.712 15.7283 278.892 16.0964 276.938V276.899C16.2868 273.688 16.1599 269.018 14.4464 264.969C12.8345 261.148 13.3422 255.894 13.5199 254.18C13.761 251.68 15.6649 239.28 18.0764 230.04C18.7364 227.527 19.3456 225.242 19.9421 223.021C21.5794 216.942 22.874 212.144 23.5213 207.968C24.3717 202.46 25.1713 193.778 24.9175 191.189C25.7932 184.983 26.4152 179.436 26.669 175.54C26.8213 173.281 26.9863 170.958 27.1513 168.711C27.329 166.198 27.5067 163.838 27.6336 161.705C27.7351 160.131 27.9001 155.207 28.0651 149.762C28.4967 151.932 29.3217 155.956 30.2355 160.436C31.9362 168.724 33.8654 178.116 34.1827 180.16C34.2335 180.464 34.2716 180.756 34.3224 181.035C34.8301 184.132 35.1601 186.188 32.7232 190.745C30.0197 195.834 27.329 204.351 26.2628 208.514C26.1359 209.009 25.9455 209.732 25.7044 210.634C24.7779 214.099 23.2167 219.899 21.8206 226.435C20.1198 234.406 19.1933 241.006 19.0537 246.057C18.711 258.991 20.0817 271.988 21.1733 282.433L21.2875 283.487C22.214 292.371 24.6382 304.276 28.6743 319.862C31.3905 330.334 36.4547 342.658 38.3585 347.303C38.6631 348.052 38.8915 348.598 39.0185 348.915C39.6023 350.4 42.5088 358.066 42.75 362.787C42.9403 366.709 42.0392 372.256 40.7827 379.935C40.605 381.039 40.4146 382.181 40.2242 383.374C38.79 392.246 37.0258 404.088 36.7466 410.117C36.4927 415.498 37.4446 421.095 38.2823 426.02C38.3585 426.489 38.4346 426.946 38.5108 427.403C38.8789 429.624 39.7546 433.051 40.8461 437.392C42.3565 443.332 44.4126 451.48 46.4053 461.266C48.9311 473.679 50.543 485.749 51.3426 498.188C51.7487 504.47 51.1903 511.464 49.8703 516.909C48.6392 521.973 42.6357 541.481 41.1 546.202C40.3258 548.575 40.3892 550.34 41.3031 551.571C42.3438 552.98 44.438 553.64 47.903 553.64C48.0045 553.64 48.1187 553.64 48.2203 553.64C49.9337 553.614 51.3299 553.398 52.688 553.183C54.2237 552.929 55.6833 552.7 57.5998 552.738C59.1229 552.764 60.519 552.954 61.7502 553.119C62.7148 553.246 63.6413 553.373 64.479 553.399C65.3801 553.424 66.1544 553.145 66.7763 552.548C67.7282 551.647 68.0963 550.225 68.1089 549.21C68.1724 527.278 67.8551 517.467 67.6647 513.558C67.5378 510.905 67.652 508.049 67.7536 505.282C67.8297 503.315 67.9059 501.449 67.8805 499.749C67.8424 495.662 68.2993 482.233 68.4009 480.05C68.4897 477.944 70.9393 434.587 71.117 432.48C71.8531 423.443 71.8658 414.99 71.8785 410.929C71.8785 410.396 71.8785 409.939 71.8785 409.571C71.8785 407.87 71.4343 402.945 70.9012 397.234C70.1651 389.289 69.2513 379.389 69.3147 374.883C69.3401 373.423 69.4289 371.812 69.5305 369.946C69.6574 367.725 69.797 365.212 69.8732 362.191C69.9113 360.68 69.962 358.053 70.0255 354.728C70.2032 345.805 70.4824 332.326 70.6982 325.358C70.787 322.655 70.9393 319.076 71.117 315.293C71.5485 305.647 72.0943 293.653 71.7897 286.545C71.5104 280.161 70.457 274.475 69.6447 270.655C70.7235 269.474 71.6627 268.142 72.4624 266.682C72.6781 266.289 72.8812 265.895 73.0716 265.476C73.5539 267.063 74.3789 268.611 75.4704 270.008C75.5973 270.16 75.7116 270.312 75.8385 270.464C75.0262 274.285 73.9346 280.06 73.6554 286.558C73.3508 293.666 73.8966 305.66 74.3281 315.306C74.4931 319.088 74.6581 322.667 74.747 325.371C74.9627 332.326 75.2293 345.818 75.4197 354.741C75.4831 358.079 75.5466 360.706 75.572 362.204C75.6354 365.224 75.7877 367.737 75.9146 369.958C76.0162 371.824 76.1177 373.436 76.1304 374.896C76.1939 379.401 75.28 389.289 74.5439 397.247C74.0108 402.945 73.5666 407.87 73.5666 409.583C73.5666 409.952 73.5666 410.408 73.5666 410.942C73.5666 415.003 73.592 423.456 74.3281 432.493C74.5058 434.6 76.9554 477.944 77.0442 480.063C77.1331 482.246 77.6027 495.674 77.5646 499.761C77.5519 501.462 77.6154 503.328 77.6915 505.295C77.7931 508.062 77.9073 510.93 77.7804 513.57C77.59 517.467 77.2854 527.291 77.3361 549.223C77.3615 550.784 78.0469 551.964 78.6688 552.561C79.2908 553.157 80.065 553.449 80.9661 553.411C81.8038 553.386 82.7176 553.259 83.6949 553.132C84.9261 552.967 86.3095 552.777 87.8453 552.751C89.7618 552.713 91.2214 552.954 92.7572 553.195C94.1025 553.411 95.4987 553.64 97.2248 553.652C97.339 553.652 97.4406 553.652 97.5421 553.652C101.007 553.652 103.101 552.992 104.142 551.584C105.056 550.34 105.119 548.588 104.345 546.215C102.809 541.481 96.806 521.985 95.5748 516.921C94.2422 511.476 93.6964 504.483 94.1025 498.2C94.9021 485.762 96.514 473.692 99.0398 461.279C101.032 451.493 103.089 443.345 104.599 437.405C105.703 433.064 106.566 429.637 106.934 427.416C107.01 426.959 107.087 426.502 107.163 426.033C108 421.108 108.952 415.511 108.699 410.129C108.419 404.1 106.655 392.259 105.221 383.387C105.03 382.194 104.84 381.051 104.662 379.947C103.406 372.268 102.505 366.722 102.695 362.8C102.924 358.079 105.843 350.413 106.427 348.928C106.554 348.61 106.769 348.064 107.087 347.316C108.99 342.67 114.055 330.346 116.771 319.875C120.82 304.289 123.231 292.384 124.158 283.499L124.272 282.446C125.363 272 126.721 259.003 126.391 246.07C126.265 241.006 125.325 234.406 123.625 226.448C122.228 219.912 120.667 214.111 119.741 210.646C119.5 209.732 119.309 209.022 119.182 208.527C118.116 204.351 115.425 195.834 112.722 190.758C110.298 186.201 110.628 184.145 111.123 181.048C111.174 180.769 111.212 180.477 111.262 180.172C111.58 178.129 113.509 168.737 115.21 160.449C116.111 156.057 116.923 152.085 117.355 149.889C117.52 155.283 117.672 160.144 117.773 161.705C117.913 163.838 118.078 166.211 118.256 168.711C118.421 170.958 118.586 173.268 118.738 175.54C118.992 179.436 119.626 184.983 120.49 191.189C120.223 193.791 121.035 202.46 121.886 207.968C122.533 212.144 123.828 216.942 125.465 223.021C126.061 225.23 126.683 227.527 127.331 230.04C129.742 239.28 131.646 251.693 131.887 254.18C132.052 255.907 132.572 261.148 130.961 264.969C129.247 269.018 129.108 273.688 129.298 276.899V276.938C129.666 278.892 129.603 282.712 129.526 286.761C129.425 292.727 129.323 298.908 130.491 301.065C130.694 301.459 131.151 301.827 131.697 301.725C133.118 301.446 134.146 298.146 134.743 291.914C134.819 291.305 134.87 290.658 134.908 289.972C134.984 288.855 135.047 287.7 135.301 286.596V286.558C135.403 285.479 135.504 284.896 135.568 284.591C135.619 284.769 135.669 284.984 135.695 285.2C135.416 287.713 135.276 290.099 135.162 292.219C135.009 294.795 134.882 297.017 134.552 298.387C134.4 298.997 133.537 300.177 132.534 301.535C131.456 302.995 130.11 304.822 129.171 306.625C128.206 308.452 127.648 311.232 128.943 313.542C129.006 313.897 129.108 314.24 129.273 314.557L129.463 314.938L129.742 314.608C130.174 314.1 140.442 302.005 141.66 299.821C142.016 299.174 142.777 296.065 143.323 293.437C143.602 292.117 144.49 287.662 144.414 286.038C144.351 284.604 144.237 278.524 144.16 273.65L144.186 273.663Z" fill="black" class="body-stroke"></path>
<path d="M95.1048 31.699C95.1175 29.9475 95.1429 28.2467 95.1302 26.6094C95.1683 26.5714 95.2063 26.5333 95.2444 26.4952C95.9425 25.7845 96.9959 24.731 97.5798 24.9722C97.8971 25.0991 98.4428 25.7718 98.4555 28.8179C98.4682 34.1867 96.9198 40.152 95.0413 41.8654C94.8002 42.0812 94.559 42.2208 94.3306 42.2843C94.8002 39.1493 95.054 35.9001 95.0794 32.6255V31.7117L95.1048 31.699Z" fill="white" class="body-fill"></path>
<path d="M50.4543 41.8531C48.5886 40.1524 47.0274 34.1744 47.0401 28.8056C47.0401 25.7595 47.5859 25.0868 47.9159 24.9599C48.5124 24.7187 49.5659 25.7849 50.2512 26.4829C50.2893 26.521 50.3274 26.5591 50.3528 26.5972C50.3528 28.1583 50.3655 29.7702 50.3782 31.4329C50.3782 31.8263 50.3782 32.2198 50.3782 32.6132C50.4035 35.9005 50.6574 39.137 51.127 42.272C50.8985 42.2085 50.6574 42.0689 50.4162 41.8531H50.4543Z" fill="white" class="body-fill"></path>
<path d="M141.19 299.555C140.365 301.014 135.136 307.335 131.912 311.194C131.696 310.077 132.318 308.097 133.664 305.609C135.085 302.982 136.875 300.608 137.903 299.618L137.992 299.542V299.428C138.106 297.055 138.55 290.366 139.007 286.583V286.457L138.931 286.355C137.738 285.098 136.71 282.179 136.177 278.511C135.656 274.995 135.707 271.619 136.304 269.677L135.758 269.512C135.136 271.518 135.085 275.008 135.606 278.6C136.151 282.332 137.179 285.251 138.423 286.647C137.979 290.404 137.535 296.839 137.421 299.288C136.189 300.507 134.413 303.02 133.156 305.33C132.026 307.411 130.846 310.178 131.468 311.714C130.656 312.691 129.996 313.465 129.64 313.884C128.688 310.876 132.268 305.584 134.679 302.017C135.403 300.951 136.024 300.024 136.443 299.301L136.481 299.238V299.161C136.558 296.585 136.951 292.841 137.23 290.112C137.319 289.312 137.383 288.614 137.446 288.043L136.875 287.992C136.824 288.563 136.748 289.262 136.659 290.061C136.38 292.777 135.986 296.483 135.91 299.085C135.504 299.783 134.895 300.684 134.197 301.713C132.09 304.835 129.374 308.846 128.955 311.993C128.498 310.191 128.98 308.274 129.691 306.904C130.618 305.139 131.95 303.337 133.016 301.89C134.108 300.418 134.958 299.263 135.136 298.539C135.479 297.118 135.618 294.871 135.758 292.27C135.885 290.15 136.012 287.764 136.291 285.251V285.225V285.187C136.266 284.997 136.215 284.692 136.126 284.4C136.063 284.21 135.936 283.753 135.58 283.753C135.212 283.753 135.085 284.261 135.035 284.502C134.933 284.933 134.844 285.606 134.768 286.495C134.501 287.637 134.438 288.805 134.362 289.934C134.324 290.62 134.273 291.254 134.197 291.851C133.41 300.189 132.026 301.091 131.62 301.167C131.316 301.23 131.1 300.926 131.036 300.811C129.932 298.781 130.046 292.409 130.148 286.787C130.224 282.725 130.288 278.879 129.907 276.861C129.729 273.714 129.856 269.144 131.519 265.21C133.194 261.25 132.661 255.894 132.496 254.142C132.255 251.642 130.338 239.178 127.914 229.913C127.254 227.4 126.645 225.115 126.048 222.894C124.411 216.84 123.117 212.042 122.482 207.905C121.632 202.409 120.832 193.753 121.098 191.24V191.202V191.164C120.223 184.957 119.601 179.411 119.347 175.527C119.195 173.255 119.03 170.945 118.865 168.699C118.687 166.198 118.509 163.825 118.382 161.692C118.129 157.682 117.456 131.65 117.456 131.384H116.885C116.885 131.549 117.1 139.646 117.329 147.515C117.202 148.353 115.945 154.255 114.689 160.36C112.988 168.648 111.059 178.053 110.742 180.109C110.691 180.413 110.653 180.693 110.602 180.985C110.094 184.081 109.739 186.328 112.252 191.049C114.93 196.088 117.608 204.554 118.662 208.692C118.789 209.199 118.979 209.91 119.22 210.824C120.946 217.271 125.541 234.393 125.845 246.121C126.188 259.016 124.83 271.987 123.738 282.42L123.624 283.474C122.698 292.333 120.286 304.2 116.25 319.774C113.547 330.206 108.495 342.505 106.591 347.138C106.287 347.899 106.058 348.445 105.931 348.762C105.106 350.869 102.39 358.129 102.162 362.813C101.971 366.785 102.873 372.37 104.142 380.074C104.319 381.178 104.51 382.321 104.7 383.514C106.134 392.373 107.899 404.202 108.165 410.193C108.406 415.523 107.467 421.07 106.642 425.969C106.566 426.439 106.49 426.895 106.414 427.352C106.046 429.548 105.183 432.962 104.078 437.29C102.568 443.243 100.499 451.391 98.5191 461.19C95.9934 473.628 94.3815 485.724 93.5692 498.187C93.163 504.521 93.7215 511.578 95.0542 517.086C96.298 522.163 102.289 541.696 103.837 546.43C104.548 548.613 104.51 550.213 103.723 551.291C102.771 552.586 100.728 553.157 97.2753 553.119C95.5999 553.106 94.2292 552.878 92.8965 552.662C91.3988 552.421 89.8503 552.167 87.8831 552.205C86.3219 552.231 84.9131 552.421 83.6693 552.599C82.7174 552.726 81.8162 552.853 81.0039 552.878C80.2678 552.903 79.6331 552.662 79.1255 552.18C78.3005 551.393 77.9832 550.149 77.9705 549.248C77.907 527.329 78.2243 517.53 78.4147 513.634C78.5416 510.956 78.4274 508.087 78.3258 505.308C78.2497 503.34 78.1863 501.487 78.199 499.799C78.237 495.712 77.7801 482.259 77.6786 480.076C77.5897 477.956 75.1401 434.6 74.9624 432.48C74.2263 423.469 74.2136 415.028 74.2009 410.979C74.2009 410.446 74.2009 409.99 74.2009 409.621C74.2009 407.946 74.6451 403.034 75.1655 397.348C75.9017 389.39 76.8155 379.478 76.752 374.946C76.7266 373.474 76.6378 371.862 76.5363 369.996C76.4094 367.788 76.2697 365.275 76.1936 362.254C76.1555 360.744 76.1047 358.117 76.0413 354.791C75.8636 345.869 75.5844 332.377 75.3686 325.421C75.2797 322.705 75.1275 319.139 74.9498 315.344C74.5182 305.711 73.9724 293.729 74.277 286.647C74.5436 280.415 75.559 274.856 76.3586 271.061C77.7039 272.521 79.3666 273.777 81.3085 274.818C85.5985 277.115 91.3353 278.892 97.3641 278.892C101.223 278.892 105.208 278.156 108.99 276.366L108.749 275.846C99.2552 280.352 88.4923 278.016 81.5877 274.323C77.3486 272.064 74.4167 268.573 73.4901 264.74C74.6324 262.062 75.4067 258.953 75.8128 255.462C76.752 247.2 75.5082 237.744 74.1755 229.583L73.6171 229.672C75.7493 242.643 76.8789 255.411 73.0078 264.499C72.9697 264.575 72.9444 264.651 72.9063 264.728C71.9671 266.872 70.7486 268.802 69.1875 270.477C69.1494 270.515 69.124 270.541 69.0859 270.579C67.7152 272.026 66.0779 273.282 64.1614 274.31C59.9857 276.544 54.3123 278.308 48.3723 278.308C44.8693 278.308 41.2647 277.699 37.7997 276.201L37.5713 276.722C39.8178 277.686 42.2293 278.334 44.7424 278.651C45.9354 278.803 47.1539 278.879 48.385 278.879C49.54 278.879 50.7077 278.816 51.8881 278.689C56.1907 278.207 60.6457 276.836 64.4279 274.818C66.2302 273.853 67.8294 272.66 69.2256 271.239C70.0125 275.034 71.0152 280.517 71.269 286.66C71.5736 293.742 71.0279 305.723 70.5963 315.357C70.4186 319.139 70.2663 322.718 70.1775 325.434C69.9617 332.39 69.6952 345.881 69.5048 354.804C69.4413 358.129 69.3779 360.769 69.3525 362.267C69.289 365.288 69.1367 367.788 69.0098 370.009C68.9083 371.888 68.8067 373.499 68.794 374.972C68.7306 379.503 69.6444 389.415 70.3806 397.373C70.901 403.06 71.3578 407.971 71.3452 409.647C71.3452 410.015 71.3452 410.472 71.3452 411.005C71.3452 415.066 71.3198 423.494 70.5837 432.505C70.406 434.612 67.9564 477.981 67.8675 480.101C67.7787 482.284 67.309 495.738 67.3471 499.825C67.3598 501.513 67.2963 503.366 67.2202 505.333C67.1187 508.113 67.0045 510.994 67.1314 513.659C67.3218 517.556 67.6263 527.354 67.5756 549.273C67.5629 550.175 67.2456 551.431 66.4206 552.205C65.9129 552.688 65.2783 552.929 64.5422 552.903C63.7299 552.878 62.8287 552.751 61.8768 552.624C60.633 552.459 59.2241 552.269 57.663 552.231C55.6957 552.193 54.1473 552.446 52.6496 552.688C51.3169 552.903 49.9462 553.119 48.2708 553.145C44.8185 553.183 42.7751 552.599 41.8232 551.317C41.0363 550.238 40.9982 548.652 41.709 546.456C43.2447 541.722 49.2481 522.188 50.4919 517.111C51.8373 511.616 52.3831 504.546 51.9769 498.213C51.1773 485.749 49.5527 473.653 47.027 461.215C45.0343 451.417 42.9655 443.268 41.4678 437.316C40.3763 432.988 39.5005 429.574 39.1324 427.378C39.0563 426.921 38.9801 426.464 38.904 425.994C38.0663 421.095 37.1271 415.536 37.3809 410.218C37.6601 404.215 39.4243 392.398 40.8459 383.539C41.0362 382.346 41.2266 381.204 41.4043 380.099C42.6608 372.383 43.5747 366.811 43.3843 362.838C43.1558 358.142 40.4397 350.895 39.6147 348.788C39.4878 348.458 39.2593 347.912 38.9547 347.163C37.0509 342.531 31.9994 330.232 29.296 319.799C25.2599 304.238 22.8483 292.358 21.9218 283.499L21.8076 282.446C20.7161 272.013 19.358 259.029 19.7007 246.146C20.0053 234.419 24.5999 217.297 26.326 210.849C26.5672 209.935 26.7575 209.225 26.8845 208.717C27.9379 204.567 30.616 196.114 33.294 191.075C35.8071 186.341 35.4517 184.107 34.944 181.01C34.8932 180.731 34.8552 180.439 34.8044 180.134C34.4871 178.078 32.5579 168.673 30.8571 160.385C29.6641 154.585 28.4202 148.746 28.1918 147.477C28.4202 139.633 28.6233 131.574 28.6233 131.434H28.0522C28.0522 131.688 27.3795 157.72 27.1256 161.731C26.986 163.863 26.821 166.224 26.6433 168.737C26.4783 170.983 26.3133 173.293 26.161 175.565C25.9072 179.449 25.2726 185.008 24.4095 191.202V191.24V191.278C24.676 193.791 23.8764 202.447 23.0261 207.943C22.3915 212.093 21.0969 216.878 19.4596 222.932C18.863 225.153 18.2411 227.438 17.5938 229.951C15.1696 239.229 13.2658 251.68 13.0119 254.18C12.8342 255.945 12.3138 261.301 13.9892 265.248C15.6519 269.182 15.7915 273.752 15.6011 276.899C15.2331 278.917 15.2965 282.75 15.36 286.825C15.4615 292.447 15.5631 298.819 14.4588 300.849C14.3954 300.964 14.1669 301.268 13.875 301.205C13.4688 301.129 12.0854 300.228 11.2985 291.901C11.2223 291.305 11.1715 290.658 11.1335 289.985C11.0573 288.855 10.9939 287.688 10.7273 286.545C10.6512 285.644 10.5623 284.972 10.4608 284.553C10.3973 284.312 10.2831 283.804 9.91503 283.804C9.55965 283.804 9.43273 284.261 9.36927 284.451C9.28043 284.73 9.22965 285.048 9.20427 285.238V285.276V285.302C9.4835 287.815 9.62313 290.201 9.73736 292.32C9.88966 294.922 10.0166 297.169 10.3593 298.59C10.537 299.314 11.3873 300.481 12.4789 301.941C13.545 303.388 14.8777 305.19 15.8042 306.954C16.515 308.312 16.9973 310.242 16.5403 312.044C16.1215 308.896 13.4181 304.886 11.2985 301.763C10.6004 300.735 10.0039 299.847 9.58506 299.136C9.49621 296.547 9.11541 292.828 8.83618 290.112C8.74734 289.312 8.6839 288.614 8.62044 288.043L8.04927 288.094C8.10004 288.665 8.17621 289.363 8.26506 290.163C8.54429 292.891 8.93774 296.636 9.01389 299.212V299.288L9.05197 299.352C9.47081 300.075 10.0927 301.002 10.8162 302.068C13.2277 305.634 16.8069 310.927 15.855 313.935C15.4996 313.516 14.8396 312.742 14.0273 311.765C14.6492 310.229 13.4688 307.462 12.3392 305.381C11.0827 303.071 9.31852 300.558 8.07468 299.339C7.96045 296.89 7.52891 290.455 7.07199 286.698C8.31582 285.302 9.3312 282.382 9.88966 278.651C10.4227 275.059 10.3593 271.581 9.73736 269.563L9.19156 269.728C9.7881 271.657 9.83887 275.046 9.31849 278.562C8.78542 282.217 7.75738 285.149 6.56431 286.406L6.47546 286.507V286.634C6.94507 290.416 7.40198 297.105 7.50352 299.479V299.593L7.59237 299.669C8.62044 300.659 10.41 303.033 11.8316 305.66C13.1769 308.147 13.7989 310.14 13.5831 311.244C10.3466 307.386 5.11741 301.065 4.30511 299.606C3.72127 298.578 1.51281 288.462 1.62704 286.127C1.6905 284.68 1.80474 278.6 1.8809 273.714C1.94436 270.299 1.99513 267.355 2.00783 266.809C2.02052 266.365 2.00781 265.641 1.99512 264.816C1.95704 263.065 1.89356 260.666 2.13472 259.219C2.54087 256.82 2.23626 237.642 2.22357 237.452C2.21088 236.652 2.09665 234.495 1.94434 231.525C1.51281 223.097 0.713217 207.41 1.20821 202.815C1.79205 197.446 2.8328 193.816 3.02318 193.131C3.41664 191.786 3.88624 187.876 3.68316 185.77C3.59432 184.78 3.60704 181.657 3.63242 178.345C3.65781 174.981 3.68318 171.503 3.58164 170.12C3.39126 167.493 3.61972 141.956 3.65779 138.085C3.65779 137.869 3.65779 137.565 3.65779 137.171C3.67049 122.347 5.37123 111.495 8.68388 104.92C10.5369 101.252 13.1896 98.2316 16.5403 95.947C19.6372 93.8401 22.2391 93.142 22.7341 93.0151H22.7468C35.4771 88.9536 44.1712 85.7552 49.3243 83.2167C53.7792 81.021 54.9469 79.6502 55.7592 78.4318C56.5334 77.2768 57.0665 75.3222 57.3457 72.6568C57.5614 70.5245 57.5615 68.4684 57.5615 67.5927V50.1663H56.9903V56.7155C55.2388 54.2024 54.033 52.0828 53.665 50.8263C51.9515 45.1021 51.0504 38.9845 50.9869 32.6257C50.9869 32.2322 50.9869 31.8388 50.9869 31.4453C50.8981 22.675 50.8219 15.1105 53.4492 10.3636C56.0257 5.71829 62.9937 0.793725 70.2029 0.616035H70.2283C70.8502 0.539882 73.1348 0.577958 74.5055 0.603342C74.8609 0.603342 75.1528 0.603343 75.3432 0.616035C81.537 0.793725 89.3554 5.33752 92.0969 10.3636C94.7241 15.174 94.648 22.84 94.5592 31.7119V32.6257C94.4957 38.9845 93.5946 45.1021 91.8811 50.8263C91.4877 52.1336 90.2184 54.3928 88.505 56.8551V50.1536H87.9338V67.58C87.9338 68.4557 87.9339 70.5118 88.1496 72.6441C88.4288 75.3222 88.9619 77.2641 89.7361 78.4191C90.5484 79.6375 91.7161 81.0083 96.171 83.204C101.324 85.7425 110.018 88.9409 122.748 93.0024H122.761C123.256 93.1293 125.858 93.8274 128.955 95.9343C132.306 98.2062 134.946 101.227 136.811 104.908C140.137 111.482 141.825 122.321 141.838 137.158C141.838 137.552 141.838 137.857 141.838 138.072C141.888 141.943 142.117 167.48 141.914 170.107C141.812 171.491 141.837 174.968 141.863 178.332C141.888 181.645 141.901 184.767 141.812 185.757C141.609 187.864 142.079 191.773 142.472 193.118C142.967 194.768 143.894 198.652 144.287 202.79C144.643 206.445 143.957 221.726 143.551 230.865C143.399 234.19 143.297 236.589 143.284 237.427C143.284 237.617 142.967 256.795 143.373 259.194C143.614 260.641 143.564 263.039 143.513 264.791C143.487 265.629 143.475 266.352 143.5 266.784C143.526 267.329 143.576 270.274 143.627 273.688C143.716 278.575 143.818 284.642 143.881 286.088C143.995 288.424 141.774 298.527 141.203 299.568L141.19 299.555Z" fill="white" class="body-fill"></path>
<path d="M88.3781 138.656C83.9866 138.656 83.3774 133.503 83.0981 131.028L83.6693 130.965C84.1008 134.658 84.9639 138.085 88.3908 138.085V138.656H88.3781Z" fill="black" class="body-stroke"></path>
<path d="M57.7773 138.656V138.085C61.1915 138.085 62.0673 134.658 62.4988 130.965L63.07 131.028C62.7781 133.503 62.1815 138.656 57.79 138.656H57.7773Z" fill="black" class="body-stroke"></path>
<path d="M73.2113 192.496C70.2033 188.105 71.6248 167.734 72.399 156.793L72.4625 155.867L73.0336 155.905L72.9702 156.831C72.2594 166.922 70.7871 187.94 73.6936 192.166L73.224 192.484L73.2113 192.496Z" fill="black" class="body-stroke"></path>
<path d="M97.3514 375.111C96.7803 374.248 93.988 369.121 94.0134 366.608H94.5845C94.5718 368.867 97.161 373.779 97.8337 374.794L97.3641 375.111H97.3514Z" fill="black" class="body-stroke"></path>
<path d="M83.0985 375.797L82.6543 375.441C83.6062 374.274 84.4058 372.015 84.812 370.771C85.4212 368.841 85.7512 367.192 85.7512 366.62H86.3224C86.3224 368.08 84.7866 373.728 83.0985 375.809V375.797Z" fill="black" class="body-stroke"></path>
<path d="M48.1312 375.111L47.6616 374.794C48.3343 373.791 50.9235 368.88 50.9108 366.62H51.4819C51.4946 369.121 48.715 374.261 48.1439 375.111H48.1312Z" fill="black" class="body-stroke"></path>
<path d="M62.3849 375.797C60.6969 373.715 59.1611 368.08 59.1611 366.608H59.7323C59.7323 367.179 60.0623 368.829 60.6715 370.758C61.065 372.002 61.8772 374.261 62.8292 375.429L62.3849 375.784V375.797Z" fill="black" class="body-stroke"></path>
<path d="M86.3857 522.658C84.0631 522.658 81.677 521.567 80.4966 519.917L80.9662 519.587C82.1593 521.262 84.7358 522.303 87.0838 522.062C88.7084 521.884 90.9168 521.046 92.2241 518.013L92.7445 518.241C91.6276 520.805 89.6349 522.366 87.1346 522.633C86.8807 522.658 86.6396 522.671 86.3857 522.671V522.658Z" fill="black" class="body-stroke"></path>
<path d="M90.4853 542.483L90.0283 542.128C91.5768 540.135 91.5514 536.683 91.2849 533.243L91.856 533.205C92.1225 536.759 92.1479 540.338 90.4853 542.483V542.483Z" fill="black" class="body-stroke"></path>
<path d="M89.0637 503.049C88.264 500.663 88.2894 495.979 88.3021 492.565V492.4H88.8732V492.565C88.8606 495.941 88.8352 500.574 89.6094 502.871L89.0637 503.049V503.049Z" fill="black" class="body-stroke"></path>
<path d="M82.4384 503.074L81.9814 502.731C83.1999 501.056 83.6314 494.888 83.7838 492.578L84.3549 492.616C84.0756 496.639 83.6061 501.462 82.4384 503.074Z" fill="black" class="body-stroke"></path>
<path d="M59.1098 522.658C58.8559 522.658 58.6021 522.645 58.3609 522.62C55.8606 522.353 53.8679 520.792 52.751 518.228L53.2714 518C54.5913 521.033 56.7998 521.871 58.4117 522.049C60.7597 522.303 63.3236 521.262 64.5293 519.574L64.9989 519.904C63.8185 521.567 61.4324 522.645 59.1098 522.645V522.658Z" fill="black" class="body-stroke"></path>
<path d="M54.998 542.483C53.3353 540.338 53.348 536.759 53.6272 533.205L54.1984 533.243C53.9318 536.683 53.9064 540.135 55.4549 542.128L54.998 542.483V542.483Z" fill="black" class="body-stroke"></path>
<path d="M56.4193 503.049L55.8735 502.871C56.6351 500.574 56.6224 495.941 56.6097 492.565V492.4H57.1809V492.565C57.1936 495.979 57.2189 500.663 56.4193 503.061V503.049Z" fill="black" class="body-stroke"></path>
<path d="M63.0449 503.074C61.8773 501.475 61.4076 496.639 61.1284 492.616L61.6996 492.578C61.8646 494.9 62.2834 501.056 63.5018 502.731L63.0449 503.074Z" fill="black" class="body-stroke"></path>
<path d="M131.43 194.641C131.316 194.641 131.202 194.641 131.075 194.641C129.806 194.565 128.549 194.121 127.699 193.435L128.054 192.991C129.438 194.095 132.522 194.743 134.464 192.991L134.844 193.423C133.956 194.222 132.763 194.641 131.43 194.641V194.641Z" fill="black" class="body-stroke"></path>
<path d="M14.0529 194.641C12.7202 194.641 11.5271 194.21 10.6387 193.423L11.0194 192.991C12.9613 194.73 16.0329 194.095 17.429 192.991L17.7844 193.435C16.934 194.121 15.6648 194.565 14.4082 194.641C14.294 194.641 14.1798 194.641 14.0529 194.641V194.641Z" fill="black" class="body-stroke"></path>
</svg>